<?xml version="1.0" standalone="no"?>
<!DOCTYPE svg PUBLIC "-//W3C//DTD SVG 1.1//EN" "http://www.w3.org/Graphics/SVG/1.1/DTD/svg11.dtd" >
<svg xmlns="http://www.w3.org/2000/svg">
<metadata>
This is a custom SVG webfont generated by Fontspring.
</metadata>
<defs>
<font id="AccordAlternateExtraBold" horiz-adv-x="1089" >
<font-face units-per-em="2048" ascent="1536" descent="-512" />
<missing-glyph horiz-adv-x="458" />
<glyph unicode=" "  horiz-adv-x="458" />
<glyph unicode="&#x09;" horiz-adv-x="458" />
<glyph unicode="&#xa0;" horiz-adv-x="458" />
<glyph unicode="!" horiz-adv-x="667" d="M207 1331h258v-483q0 -78 -18.5 -235.5t-18.5 -233.5h-184q0 76 -18.5 233.5t-18.5 235.5v483zM174 135.5q0 65.5 47 112.5t112.5 47t113 -47t47.5 -112.5t-47.5 -113t-113 -47.5t-112.5 47.5t-47 113z" />
<glyph unicode="&#x22;" horiz-adv-x="684" d="M410 1053v428h192v-428h-192zM82 1053v428h192v-428h-192z" />
<glyph unicode="#" horiz-adv-x="1415" d="M721 0l76 303h-353l-75 -303h-219l75 303h-235v193h284l95 372h-287v193h334l78 303h219l-78 -303h352l78 303h219l-78 -303h219v-193h-266l-94 -372h268v-193h-317l-76 -303h-219zM588 868l-94 -372h352l94 372h-352z" />
<glyph unicode="$" horiz-adv-x="1005" d="M45 96l80 248q102 -76 235.5 -102.5t228.5 9.5t95 124q0 63 -63.5 102t-154.5 64.5t-182 63.5t-154.5 126t-63.5 223q0 145 78.5 239.5t209.5 131.5v326h267v-305q174 -23 297 -113l-80 -248q-57 45 -127 73.5t-133.5 35t-117.5 -4t-86 -42t-32 -78.5q0 -59 46 -99.5 t114.5 -59.5t148.5 -49t148.5 -66t115 -111.5t46.5 -184.5q0 -168 -94.5 -269t-245.5 -136v-313h-267v303q-182 22 -309 112z" />
<glyph unicode="%" horiz-adv-x="2310" d="M893 897q0 -213 -107.5 -334t-289.5 -121q-180 0 -289 121t-109 334q0 211 108.5 333t289.5 122q182 0 289.5 -121t107.5 -334zM631 897q0 109 -32 156t-103.5 47t-103.5 -47t-32 -156q0 -113 32 -158t103.5 -45t103.5 45t32 158zM2212 430q0 -213 -106.5 -334 t-290.5 -121q-180 0 -289 121t-109 334q0 211 107.5 333t290.5 122q184 0 290.5 -121t106.5 -334zM1950 430q0 109 -33 156t-102 47q-72 0 -104 -47t-32 -156q0 -113 32 -158t103.5 -45t103.5 45t32 158zM1354 1331h295l-695 -1331h-292z" />
<glyph unicode="&#x26;" horiz-adv-x="1288" d="M1288 594h-201v-133q0 -133 -41.5 -231.5t-115.5 -151.5t-161 -78t-194 -25q-201 0 -357.5 109t-156.5 305q0 219 201 324q-156 96 -156 284q0 154 134.5 254.5t334.5 100.5q168 0 306 -72l-121 -225q-90 41 -191 41q-88 0 -138 -34t-50 -97q0 -150 197 -150h235v193h274 v-193h201v-221zM338 410q0 -94 71.5 -138.5t165.5 -44.5q238 0 238 234v133h-235q-106 0 -173 -48t-67 -136z" />
<glyph unicode="'" horiz-adv-x="360" d="M82 1053v428h197v-428h-197z" />
<glyph unicode="(" horiz-adv-x="802" d="M102 512q0 317 105.5 568t335.5 456l162 -147q-389 -295 -389.5 -877t389.5 -877l-162 -147q-229 205 -335 456t-106 568z" />
<glyph unicode=")" horiz-adv-x="802" d="M700 512q0 -317 -105.5 -568t-334.5 -456l-162 147q389 295 389 877t-389 877l162 147q229 -205 334.5 -456t105.5 -568z" />
<glyph unicode="*" horiz-adv-x="985" d="M600 1536l-16 -285l260 107l63 -201l-268 -76l174 -211l-170 -125l-151 234l-150 -231l-172 124l178 213l-270 74l65 201l260 -105l-16 281h213z" />
<glyph unicode="+" horiz-adv-x="1290" d="M1208 795v-254h-426v-406h-274v406h-426v254h426v405h274v-405h426z" />
<glyph unicode="," horiz-adv-x="487" d="M61 133q0 66 47.5 113t112.5 47q82 0 125 -63.5t43 -157.5q0 -106 -55 -228.5t-187 -187.5l-77 74q119 111 129 245q-59 8 -98.5 52.5t-39.5 105.5z" />
<glyph unicode="-" horiz-adv-x="675" d="M641 639v-254h-606v254h606z" />
<glyph unicode="." horiz-adv-x="503" d="M92 133.5q0 65.5 47 112.5t112.5 47t113 -47t47.5 -112.5t-47.5 -113t-113 -47.5t-112.5 47.5t-47 113z" />
<glyph unicode="/" horiz-adv-x="667" d="M481 1536h217l-518 -1597h-211z" />
<glyph unicode="0" horiz-adv-x="1159" d="M821 623v86q0 387 -241.5 387t-241.5 -387v-86q0 -391 241.5 -391t241.5 391zM61 623v86q0 328 140.5 485.5t378 157.5t378 -158t140.5 -485v-86q0 -332 -140.5 -490t-378 -158t-378 158t-140.5 490z" />
<glyph unicode="1" horiz-adv-x="647" d="M0 1075v256h549v-1331h-275v1075h-274z" />
<glyph unicode="2" horiz-adv-x="1011" d="M971 883q0 -61 -13.5 -114.5t-51.5 -109t-68.5 -93.5t-105.5 -100.5t-119 -95.5l-148 -114h506v-256h-934v256l201 148l170 124q55 41 122.5 96.5t96 91.5t49 79t20.5 88q0 213 -247 213q-84 0 -181.5 -34t-156.5 -81l-80 244q180 127 418 127q219 0 370.5 -124 t151.5 -345z" />
<glyph unicode="3" horiz-adv-x="991" d="M332 580v235h78q233 0 233 143q0 137 -205 138q-160 0 -311 -111l-82 250q74 39 114 57.5t117.5 39t161.5 20.5q221 0 351.5 -105.5t130.5 -288.5q0 -170 -162 -268q82 -47 132 -122.5t50 -164.5q0 -201 -136 -314.5t-366 -113.5q-129 0 -221 33t-192 96l81 250 q145 -123 332 -123q123 0 174.5 41t51.5 131q0 78 -60.5 127.5t-193.5 49.5h-78z" />
<glyph unicode="4" horiz-adv-x="1081" d="M43 512l369 819h288l-368 -819h407v492h275v-1004h-275v256h-696v256z" />
<glyph unicode="5" horiz-adv-x="1030" d="M96 600v731h852v-256h-577v-219h73q258 0 401.5 -122t143.5 -322q0 -213 -147.5 -325t-370.5 -112q-139 0 -230 27t-196 100l80 244q150 -115 338 -115q252 0 252 175q0 115 -82 154.5t-273 39.5h-264z" />
<glyph unicode="6" horiz-adv-x="1081" d="M582 836q205 0 331.5 -102.5t126.5 -315.5q0 -219 -123.5 -331t-314.5 -112q-127 0 -222 35t-155.5 93.5t-97.5 145.5t-51.5 181t-14.5 211q0 358 132.5 534.5t422.5 176.5q240 0 410 -127l-80 -244q-143 115 -340 115q-135 0 -197.5 -81t-62.5 -218q101 39 236 39z M573 600q-133 0 -227 -47q0 -164 52.5 -243t195.5 -79q70 0 121 46.5t51 140.5q0 182 -193 182z" />
<glyph unicode="7" horiz-adv-x="968" d="M424 0h-293l526 1075h-639v256h932v-256z" />
<glyph unicode="8" horiz-adv-x="1114" d="M557 1352q195 0 332 -106.5t137 -248.5q0 -184 -156 -284q201 -96 201 -322q0 -174 -137 -295t-377 -121t-377 121t-137 295q0 225 201 322q-156 100 -156 284q0 141 137 248t332 107zM319 412q0 -86 62.5 -134.5t175.5 -48.5t175.5 48.5t62.5 134.5q0 82 -62.5 132 t-175.5 50t-175.5 -50t-62.5 -132zM362 956q0 -66 51.5 -103.5t143.5 -37.5t143.5 38t51.5 103q0 57 -51.5 99.5t-143.5 42.5t-143.5 -42.5t-51.5 -99.5z" />
<glyph unicode="9" horiz-adv-x="1081" d="M500 496q-205 0 -332 102t-127 313q0 219 124 330t314 111q127 0 223.5 -35t156 -92.5t96 -144.5t51 -180t14.5 -210q0 -360 -132 -537.5t-423 -177.5q-240 0 -410 127l80 244q143 -115 340 -115q260 0 260 304q-100 -39 -235 -39zM508 731q133 0 227 47q0 162 -52 240 t-196 78q-70 0 -121 -46t-51 -139q0 -180 193 -180z" />
<glyph unicode=":" horiz-adv-x="503" d="M92 133.5q0 65.5 47 112.5t112.5 47t113 -47t47.5 -112.5t-47.5 -113t-113 -47.5t-112.5 47.5t-47 113zM92 890.5q0 65.5 47 113t112.5 47.5t113 -47.5t47.5 -113t-47.5 -112.5t-113 -47t-112.5 47t-47 112.5z" />
<glyph unicode=";" horiz-adv-x="501" d="M92 890.5q0 65.5 47 113t112.5 47.5t113 -47.5t47.5 -113t-47.5 -112.5t-113 -47t-112.5 47t-47 112.5zM92 133q0 66 47 113t113 47q82 0 125 -63.5t43 -157.5q0 -106 -55.5 -228.5t-186.5 -187.5l-78 74q119 111 129 245q-59 8 -98 52.5t-39 105.5z" />
<glyph unicode="&#x3c;" horiz-adv-x="1120" d="M1049 276v-231l-977 533v167l977 533v-231l-711 -385z" />
<glyph unicode="=" horiz-adv-x="1136" d="M1055 520v-192h-973v192h973zM1055 1006v-193h-973v193h973z" />
<glyph unicode="&#x3e;" horiz-adv-x="1120" d="M72 45v231l710 386l-710 385v231l977 -533v-167z" />
<glyph unicode="?" horiz-adv-x="1009" d="M156 135.5q0 65.5 47 112.5t112.5 47t112.5 -47t47 -112.5t-47 -113t-112.5 -47.5t-112.5 47.5t-47 113zM948 938q0 -70 -25.5 -130t-54 -98t-88 -79t-87.5 -56l-91 -45q-14 -6 -20 -10q-129 -55 -129 -141h-275q0 115 68.5 201t171.5 135q25 14 69.5 34.5t71.5 35 t56.5 37t44 51t14.5 65.5q0 160 -252 160q-166 0 -272 -60l-80 246q156 68 352 68q236 0 381 -108.5t145 -305.5z" />
<glyph unicode="@" horiz-adv-x="2344" d="M1999 637q0 197 -62.5 336t-179.5 219t-264 115.5t-340 35.5q-385 0 -596 -198.5t-211 -609.5q0 -842 825 -854q342 -4 693 108l63 -192q-377 -113 -756 -109q-221 2 -403 61.5t-327.5 179t-226.5 325.5t-81 481q2 475 263 738t757 263q229 0 414.5 -47t333 -149.5 t229.5 -280.5t82 -422q0 -182 -38 -324.5t-142.5 -243t-268.5 -100.5q-229 0 -295 174q-25 -66 -114.5 -120t-216.5 -54q-121 0 -210 42t-135.5 99.5t-74 139.5t-34.5 141.5t-7 122.5q0 86 23.5 171t77.5 172t164 141.5t259 54.5q121 0 236.5 -35t185.5 -76v-584 q0 -106 32 -151t109 -45q236 0 236 475zM1409 524v281q-90 55 -209 55q-72 0 -127 -20.5t-90 -53t-56.5 -80t-29.5 -93.5t-8 -99q0 -45 1 -64.5t6 -71.5t20.5 -81t41 -64.5t71.5 -53t108 -17.5q141 0 206.5 80.5t65.5 281.5z" />
<glyph unicode="A" horiz-adv-x="1300" d="M1020 0l-98 262h-543l-98 -262h-281l510 1331h281l509 -1331h-280zM649 985l-176 -467h352z" />
<glyph unicode="B" horiz-adv-x="1181" d="M98 1331h500q252 0 373 -102.5t121 -272.5q0 -176 -156 -266q197 -96 197 -301q0 -180 -125 -284.5t-390 -104.5h-520v1331zM618 563h-245v-307h245q240 0 240 153.5t-240 153.5zM598 1075h-225v-276h225q115 0 167 39t52 98q0 139 -219 139z" />
<glyph unicode="C" horiz-adv-x="1097" d="M336 709v-86q0 -391 326 -392q96 0 186 35t131 78l82 -250q-170 -119 -399 -119q-276 0 -438.5 159t-162.5 489v86q0 326 162 484.5t439 158.5q207 0 399 -117l-82 -250q-158 111 -317 111q-326 0 -326 -387z" />
<glyph unicode="D" horiz-adv-x="1193" d="M98 0v1331h416q618 0 619 -622v-86q0 -623 -619 -623h-416zM858 623v86q0 203 -83 284.5t-261 81.5h-141v-819h141q178 0 261 82t83 285z" />
<glyph unicode="E" horiz-adv-x="1075" d="M373 573v-317h678v-256h-953v1331h953v-256h-678v-246h596v-256h-596z" />
<glyph unicode="F" horiz-adv-x="1036" d="M373 573v-573h-275v1331h932v-256h-657v-246h575v-256h-575z" />
<glyph unicode="G" horiz-adv-x="1181" d="M645 522v236h475v-649q-199 -133 -438 -134q-287 0 -454 159t-167 489v86q0 328 168 485.5t453 157.5q127 0 219 -31t199 -88l-80 -248q-166 111 -338 111q-346 0 -346 -387v-86q0 -391 346 -392q84 0 164 23v268h-201z" />
<glyph unicode="H" horiz-adv-x="1230" d="M373 573v-573h-275v1331h275v-502h485v502h275v-1331h-275v573h-485z" />
<glyph unicode="I" horiz-adv-x="471" d="M98 0v1331h275v-1331h-275z" />
<glyph unicode="J" horiz-adv-x="903" d="M805 1331v-885q0 -248 -113.5 -359.5t-308.5 -111.5q-186 0 -360 93l79 247q127 -84 260 -84q86 0 127 43t41 172v629h-401v256h676z" />
<glyph unicode="K" horiz-adv-x="1224" d="M393 696l465 635h326l-465 -635l506 -696h-326zM98 0v1331h275v-1331h-275z" />
<glyph unicode="L" horiz-adv-x="987" d="M98 0v1331h275v-1075h596v-256h-871z" />
<glyph unicode="M" horiz-adv-x="1447" d="M98 0v1331h260l367 -569l365 569h260v-1331h-275v836l-350 -545l-352 545v-836h-275z" />
<glyph unicode="N" horiz-adv-x="1230" d="M98 0v1331h260l500 -809v809h275v-1331h-261l-499 807v-807h-275z" />
<glyph unicode="O" horiz-adv-x="1241" d="M903 623v82q0 211 -73.5 301t-209 90t-209 -90.5t-73.5 -300.5v-82q0 -211 73.5 -301.5t209 -90.5t209 90.5t73.5 301.5zM61 623v82q0 332 150.5 489.5t409 157.5t409 -158t150.5 -489v-82q0 -332 -150.5 -490t-409 -158t-409 158t-150.5 490z" />
<glyph unicode="P" horiz-adv-x="1157" d="M98 1331h520q266 0 390.5 -117.5t124.5 -328.5q0 -444 -515 -445h-245v-440h-275v1331zM618 1075h-245v-379h245q131 0 185.5 46t54.5 143q0 98 -54.5 144t-185.5 46z" />
<glyph unicode="Q" horiz-adv-x="1241" d="M201 -340v256q63 57 151 58h6q85 0 172 -28l181 -60q84 -28 166 -27h12q88 2 151 57v-256q-63 -57 -151 -58h-6q-85 0 -172 28l-181 60q-87 29 -172 28h-6q-88 -1 -151 -58zM903 623v82q0 211 -73.5 301t-209 90t-209 -90.5t-73.5 -300.5v-82q0 -211 73.5 -301.5 t209 -90.5t209 90.5t73.5 301.5zM61 623v82q0 332 150.5 489.5t409 157.5t409 -158t150.5 -489v-82q0 -332 -150.5 -490t-409 -158t-409 158t-150.5 490z" />
<glyph unicode="R" horiz-adv-x="1241" d="M926 0l-316 481h-237v-481h-275v1331h520q514 0 515 -426q0 -270 -242 -375l350 -530h-315zM618 1075h-245v-338h245q240 0 240 168q0 86 -54.5 128t-185.5 42z" />
<glyph unicode="S" horiz-adv-x="1005" d="M45 96l80 248q102 -76 235 -102q57 -11 107 -12q67 0 122 21q95 36 95 124q0 63 -63.5 102t-154.5 64.5t-182 63.5t-154.5 126t-63.5 223q0 154 94 254.5t227 127.5q68 14 139 14q69 0 141 -13q146 -27 251 -104l-80 -248q-57 45 -127 73.5t-133 35.5q-24 2 -47 2 q-38 0 -71 -6q-54 -10 -86 -42t-32 -79q0 -59 46 -99.5t114.5 -59.5t148.5 -49t148.5 -66t115 -111.5t46.5 -184.5q0 -137 -67 -233t-171.5 -138t-226.5 -51q-25 -2 -49 -1q-98 0 -194 26q-120 33 -208 94z" />
<glyph unicode="T" horiz-adv-x="1144" d="M41 1075v256h1063v-256h-393v-1075h-277v1075h-393z" />
<glyph unicode="U" horiz-adv-x="1239" d="M82 631v700h274v-700q0 -217 68 -308.5t197 -91.5q127 0 194.5 91.5t67.5 308.5v700h274v-700q0 -336 -144.5 -496t-392 -160t-393 159t-145.5 497z" />
<glyph unicode="V" horiz-adv-x="1247" d="M1247 1331l-483 -1331h-281l-483 1331h281l342 -983l344 983h280z" />
<glyph unicode="W" horiz-adv-x="1880" d="M1077 1331l264 -917l265 917h274l-401 -1331h-275l-264 877l-264 -877h-275l-401 1331h274l265 -917l264 917h274z" />
<glyph unicode="X" horiz-adv-x="1243" d="M356 1331l265 -420l266 420h315l-424 -635l465 -696h-315l-307 479l-306 -479h-315l463 696l-422 635h315z" />
<glyph unicode="Y" horiz-adv-x="1294" d="M1294 1331l-508 -815v-516h-276v512l-510 819h311l336 -569l336 569h311z" />
<glyph unicode="Z" d="M47 1075v256h995v-215l-671 -860h712v-256h-1077v215l672 860h-631z" />
<glyph unicode="[" horiz-adv-x="753" d="M655 -319v-193h-495v2048h495v-193h-282v-1662h282z" />
<glyph unicode="\" horiz-adv-x="667" d="M-31 1536h217l512 -1597h-211z" />
<glyph unicode="]" horiz-adv-x="753" d="M98 -512v193h283v1662h-283v193h496v-2048h-496z" />
<glyph unicode="^" horiz-adv-x="1183" d="M696 1454l406 -833h-242l-270 626l-271 -629h-237l403 836h211z" />
<glyph unicode="_" horiz-adv-x="1085" d="M1085 -20v-213h-1085v213h1085z" />
<glyph unicode="`" horiz-adv-x="643" d="M332 1536l-213 279h250l155 -279h-192z" />
<glyph unicode="a" horiz-adv-x="1009" d="M948 659v-630q-184 -53 -461 -54q-184 0 -317 93.5t-133 263.5v12q0 147 129 229t369 89q25 2 73.5 2t73.5 2v34q0 96 -209 97q-162 0 -309 -64l-78 240q201 76 408 76q454 -1 454 -390zM682 240v219q-203 0 -291 -22.5t-88 -92.5v-12q0 -51 53.5 -78t137.5 -27 q108 1 188 13z" />
<glyph unicode="b" horiz-adv-x="1073" d="M98 29v1405h267v-410q59 25 149 25q223 0 360.5 -133.5t137.5 -391.5v-24q0 -252 -135.5 -388.5t-362.5 -136.5q-254 1 -416 54zM743 500v24q0 158 -63.5 215.5t-185.5 57.5q-88 0 -129 -27v-530q66 -12 139 -13q123 0 181 57.5t58 215.5z" />
<glyph unicode="c" horiz-adv-x="937" d="M61 512v12q0 256 141.5 390.5t377.5 134.5q160 0 315 -91l-76 -233q-106 72 -239 72q-123 0 -186.5 -62.5t-63.5 -210.5v-12q0 -150 73.5 -217.5t196.5 -67.5q133 0 238 56l75 -232q-135 -76 -313 -76q-250 0 -394.5 150.5t-144.5 386.5z" />
<glyph unicode="d" horiz-adv-x="1073" d="M975 1434v-1405q-162 -53 -416 -54q-227 0 -362.5 136.5t-135.5 388.5v24q0 258 137.5 391.5t360.5 133.5q90 0 150 -25v410h266zM330 524v-24q0 -158 58 -215.5t181 -57.5q72 0 140 13v530q-49 27 -129 27q-123 0 -186.5 -57.5t-63.5 -215.5z" />
<glyph unicode="e" horiz-adv-x="1077" d="M1016 524v-110h-680v-11q0 -76 67.5 -126t186.5 -50q195 0 332 43l77 -239q-176 -55 -409 -56q-528 0 -529 525v24q0 268 125 396.5t352.5 128.5t352.5 -128.5t125 -396.5zM336 621v-11h405v11q0 82 -54 129t-148.5 47t-148.5 -47t-54 -129z" />
<glyph unicode="f" horiz-adv-x="692" d="M98 0v1067q0 391 396 391q154 0 278 -53l-80 -242q-86 43 -198 43q-129 0 -129 -137v-45h327v-252h-327v-772h-267z" />
<glyph unicode="g" horiz-adv-x="1073" d="M975 995v-1056q0 -215 -131 -333t-344 -118q-236 0 -414 98l76 236q137 -82 338 -82q96 0 152.5 50t56.5 149v49q-68 -12 -170 -13q-213 0 -345.5 139.5t-132.5 397.5v12q0 260 145.5 392.5t399.5 132.5q230 -1 369 -54zM330 524v-12q0 -139 45 -203.5t133 -77.5 q23 -4 72 -4q63 0 129 13v544q-61 12 -129 13q-125 0 -187.5 -58.5t-62.5 -214.5z" />
<glyph unicode="h" d="M98 0v1434h267v-400q143 14 190 15q205 0 330 -117t125 -336v-596h-265v616q0 180 -210 181q-106 0 -170 -23v-774h-267z" />
<glyph unicode="i" horiz-adv-x="475" d="M104 0v1024h267v-1024h-267zM78 1290.5q0 65.5 47 112.5t112.5 47t112.5 -47t47 -112.5t-47 -113t-112.5 -47.5t-112.5 47.5t-47 113z" />
<glyph unicode="j" horiz-adv-x="483" d="M375 1024v-1147q0 -203 -101.5 -296t-271.5 -93q-94 0 -160 39l78 235q35 -23 82 -22q106 0 107 137v1147h266zM82 1290.5q0 65.5 47 112.5t112.5 47t112.5 -47t47 -112.5t-47 -113t-112.5 -47.5t-112.5 47.5t-47 113z" />
<glyph unicode="k" horiz-adv-x="1144" d="M385 539l387 485h332l-387 -485l428 -539h-332zM98 0v1434h267v-1434h-267z" />
<glyph unicode="l" horiz-adv-x="563" d="M98 371v1063h267v-1065q0 -137 67 -138q29 0 53 13l78 -238q-92 -27 -172 -26q-135 0 -214 93t-79 298z" />
<glyph unicode="m" horiz-adv-x="1654" d="M98 0v995q178 53 437 54q168 0 270 -80q121 80 336 80q195 0 314.5 -117t119.5 -336v-596h-264v616q0 180 -191 181q-106 0 -188 -17q37 -94 37 -184v-596h-264v616q0 180 -191 181q-82 0 -149 -9v-788h-267z" />
<glyph unicode="n" d="M98 0v995q172 53 457 54q205 0 330 -117t125 -336v-596h-265v616q0 180 -210 181q-100 0 -170 -11v-786h-267z" />
<glyph unicode="o" horiz-adv-x="1101" d="M772 506v12q0 156 -54 217.5t-167 61.5t-167 -61.5t-54 -217.5v-12q0 -156 54 -217.5t167 -61.5t167 61.5t54 217.5zM61 506v12q0 268 133.5 399.5t356.5 131.5t356 -131.5t133 -399.5v-12q0 -268 -133 -399.5t-356 -131.5t-356.5 131.5t-133.5 399.5z" />
<glyph unicode="p" horiz-adv-x="1073" d="M98 -512v1507q162 53 416 54q227 0 362.5 -136.5t135.5 -388.5v-24q0 -258 -137.5 -391.5t-360.5 -133.5q-90 0 -149 25v-512h-267zM743 500v24q0 158 -58 215.5t-181 57.5q-70 0 -139 -13v-530q41 -27 129 -27q123 0 186 57.5t63 215.5z" />
<glyph unicode="q" horiz-adv-x="1073" d="M975 995v-1507h-266v512q-59 -25 -150 -25q-223 0 -360.5 133.5t-137.5 391.5v24q0 252 135.5 388.5t362.5 136.5q254 -1 416 -54zM330 524v-24q0 -158 63.5 -215.5t186.5 -57.5q88 0 129 27v530q-61 12 -140 13q-123 0 -181 -57.5t-58 -215.5z" />
<glyph unicode="r" horiz-adv-x="737" d="M98 0v995q158 53 385 54q127 0 254 -29l-80 -246q-72 23 -153 23q-78 0 -139 -11v-786h-267z" />
<glyph unicode="s" horiz-adv-x="937" d="M61 51l78 240q90 -59 279 -63h17q172 0 173 61q0 43 -54 65.5t-130 39t-152.5 44t-131 99t-54.5 184.5q0 129 87 212t210 103q63 11 128 11q62 0 127 -10q132 -19 220 -79l-78 -241q-61 49 -165 69q-57 11 -107 12q-40 0 -75 -7q-79 -16 -79 -64q0 -39 54.5 -61.5 t130 -38t152.5 -42t131.5 -94t54.5 -174.5q0 -117 -67 -195.5t-168 -109t-215 -35.5q-18 -1 -36 0q-93 0 -176 18q-99 21 -154 56z" />
<glyph unicode="t" horiz-adv-x="806" d="M98 369v962h267v-307h348v-252h-348v-405q0 -137 129 -138q125 0 215 43l77 -235q-119 -59 -292 -60q-396 1 -396 392z" />
<glyph unicode="u" d="M991 1024v-995q-213 -53 -456 -54q-205 0 -330 117t-125 336v596h264v-616q0 -180 211 -181q113 0 170 11v786h266z" />
<glyph unicode="v" d="M281 1024l264 -700l264 700h281l-406 -1024h-278l-406 1024h281z" />
<glyph unicode="w" horiz-adv-x="1693" d="M295 1024l207 -680l207 680h276l207 -680l207 680h276l-344 -1024h-278l-207 612l-205 -612h-279l-344 1024h277z" />
<glyph unicode="x" horiz-adv-x="1142" d="M369 1024l202 -285l203 285h328l-367 -485l408 -539h-328l-244 338l-243 -338h-328l408 539l-367 485h328z" />
<glyph unicode="y" d="M991 1024v-1085q0 -215 -131 -333t-344 -118q-238 0 -416 98l78 236q137 -82 338 -82q96 0 152.5 50t56.5 149v55q-68 -18 -190 -19q-199 0 -327 113t-128 340v596h264v-616q0 -180 211 -181q100 0 170 11v786h266z" />
<glyph unicode="z" horiz-adv-x="1021" d="M55 772v252h912v-252l-539 -520h539v-252h-912v252l539 520h-539z" />
<glyph unicode="{" horiz-adv-x="1093" d="M129 434v193h125q113 0 171 78.5t58 222.5v205q0 193 99.5 298t269.5 105h143v-193h-143q-82 0 -119 -60t-37 -196v-198q0 -270 -170 -359q166 -82 170 -358v-235q0 -135 37 -195.5t119 -60.5h143v-193h-143q-166 0 -267.5 105.5t-101.5 297.5v242q0 145 -58 223t-171 78 h-125z" />
<glyph unicode="|" horiz-adv-x="532" d="M373 1536v-2048h-213v2048h213z" />
<glyph unicode="}" horiz-adv-x="1093" d="M965 627v-193h-125q-113 0 -171.5 -77.5t-58.5 -223.5v-242q0 -193 -101 -298t-267 -105h-144v193h144q82 0 118.5 60t36.5 196v235q4 276 170 358q-170 88 -170 359v198q0 135 -36.5 195.5t-118.5 60.5h-144v193h144q170 0 269 -105.5t99 -297.5v-205q0 -143 58.5 -222 t171.5 -79h125z" />
<glyph unicode="~" horiz-adv-x="1187" d="M82 408q0 373 315 372q70 0 126.5 -28.5t88 -64.5t74.5 -64.5t88 -28.5q63 0 95 51t32 127h205q0 -373 -313 -373q-70 0 -126.5 29t-88 63.5t-74.5 63.5t-88 29q-63 0 -95 -50.5t-32 -125.5h-207z" />
<glyph unicode="&#xa1;" horiz-adv-x="667" d="M465 -307h-258v483q0 78 18.5 235.5t18.5 233.5h184q0 -76 18.5 -233.5t18.5 -235.5v-483zM174 888.5q0 65.5 47 113t112.5 47.5t113 -47.5t47.5 -113t-47.5 -112.5t-113 -47t-112.5 47t-47 112.5z" />
<glyph unicode="&#xa2;" horiz-adv-x="909" d="M41 512v12q0 221 107.5 351.5t291.5 162.5v293h213v-291q102 -14 221 -82l-75 -233q-106 72 -240 72q-123 0 -186.5 -62.5t-63.5 -210.5v-12q0 -150 74 -217.5t197 -67.5q133 0 237 56l76 -232q-111 -59 -240 -71v-287h-213v297q-188 39 -293.5 180t-105.5 342z" />
<glyph unicode="&#xa3;" horiz-adv-x="1083" d="M1065 256v-256h-870v541h-177v192h177v135q0 244 113.5 364t350.5 120q170 0 308 -76l-78 -238q-92 51 -219 58q-123 2 -162 -52.5t-39 -197.5v-113h338v-192h-338v-285h596z" />
<glyph unicode="&#xa4;" horiz-adv-x="1421" d="M713 352q-63 0 -113 15l-289 -291l-188 190l266 262q-31 57 -31 136q0 72 29 133l-264 266l188 188l287 -288q59 16 115 16q53 0 112 -16l283 286l188 -186l-260 -260q31 -61 31 -139q0 -74 -33 -140l264 -256l-190 -192l-287 291q-49 -15 -108 -15zM712.5 528 q59.5 0 99.5 38t40 98q0 61 -39 100t-100.5 39t-100.5 -39t-39 -100q0 -59 40 -97.5t99.5 -38.5z" />
<glyph unicode="&#xa5;" horiz-adv-x="1294" d="M1133 618v-192h-347v-86h347v-193h-347v-147h-276v147h-350v193h350v86h-350v192h282l-442 713h311l336 -549l336 549h311l-444 -713h283z" />
<glyph unicode="&#xa6;" horiz-adv-x="458" d="M336 1536v-825h-213v825h213zM336 356v-868h-213v868h213z" />
<glyph unicode="&#xa7;" horiz-adv-x="1112" d="M98 -358l80 247q160 -113 340 -112q96 0 157.5 38t61.5 109q0 68 -61.5 107t-202.5 80q-354 104 -354 403q0 176 108 281q-109 104 -108 272q0 201 131 302t344 101q88 0 164 -19t112.5 -39.5t100.5 -59.5l-80 -248q-49 35 -82 53.5t-98.5 37.5t-137.5 19 q-76 0 -127 -32.5t-51 -100.5q0 -37 19.5 -68.5t39 -49t63.5 -35t61.5 -22.5t62.5 -17q373 -98 373 -387q0 -184 -113 -293q113 -100 113 -260q0 -113 -43 -197t-118 -133t-164 -73.5t-191 -24.5q-88 0 -167 19.5t-122 41t-111 60.5zM395 528q0 -84 81 -132t179 -64 q82 45 82 145q0 68 -61.5 107t-202.5 80q-78 -36 -78 -136z" />
<glyph unicode="&#xa8;" horiz-adv-x="1019" d="M98 1695.5q0 65.5 47.5 112.5t113 47t112.5 -47t47 -112.5t-47 -112.5t-112.5 -47t-113 47t-47.5 112.5zM602 1695.5q0 65.5 47 112.5t112.5 47t113 -47t47.5 -112.5t-47.5 -112.5t-113 -47t-112.5 47t-47 112.5z" />
<glyph unicode="&#xa9;" horiz-adv-x="1816" d="M496 717v20q0 201 115.5 307.5t293.5 106.5q129 0 258 -72l-61 -186q-90 57 -189 57q-100 0 -151 -51t-51 -174v-8q0 -223 225 -223q98 0 180 45l62 -187q-113 -61 -263 -61q-176 0 -297.5 114.5t-121.5 311.5zM164 721q0 309 217 527t526.5 218t527.5 -217t218 -528 q0 -309 -218 -526.5t-527.5 -217.5t-526.5 217.5t-217 526.5zM317 721q0 -242 173.5 -415t417 -173t416.5 172t173 416t-173 418t-416.5 174t-417 -174t-173.5 -418z" />
<glyph unicode="&#xaa;" horiz-adv-x="1009" d="M948 659v-630q-184 -53 -461 -54q-184 0 -317 93.5t-133 263.5v12q0 147 129 229t369 89q25 2 73.5 2t73.5 2v34q0 96 -209 97q-162 0 -309 -64l-78 240q201 76 408 76q454 -1 454 -390zM682 240v219q-203 0 -291 -22.5t-88 -92.5v-12q0 -51 53.5 -78t137.5 -27 q108 1 188 13z" />
<glyph unicode="&#xab;" horiz-adv-x="1185" d="M1087 82h-245l-330 430l330 430h245l-329 -430zM637 82h-246l-330 430l330 430h246l-330 -430z" />
<glyph unicode="&#xac;" horiz-adv-x="1204" d="M1106 893v-641h-213v448h-832v193h1045z" />
<glyph unicode="&#xad;" horiz-adv-x="675" d="M641 639v-254h-606v254h606z" />
<glyph unicode="&#xae;" horiz-adv-x="1816" d="M995 311l-137 299h-78v-299h-213v819h340q160 0 244 -68.5t84 -180.5q0 -184 -160 -248l162 -322h-242zM907 930h-127v-129h127q61 0 86 14t25 45q0 37 -25 53.5t-86 16.5zM164 721q0 309 217 527t526.5 218t527.5 -217t218 -528q0 -309 -218 -526.5t-527.5 -217.5 t-526.5 217.5t-217 526.5zM317 721q0 -242 173.5 -415t417 -173t416.5 172t173 416t-173 418t-416.5 174t-417 -174t-173.5 -418z" />
<glyph unicode="&#xb0;" horiz-adv-x="866" d="M768 1202q0 -139 -96.5 -235.5t-237.5 -96.5q-143 0 -239.5 94.5t-96.5 237.5q0 141 97.5 237.5t238.5 96.5q139 0 236.5 -97.5t97.5 -236.5zM571 1202q0 61 -38.5 102.5t-98.5 41.5q-61 0 -100 -41t-39 -102.5t40 -101.5t99 -40q55 0 96 41t41 100z" />
<glyph unicode="&#xb1;" horiz-adv-x="1290" d="M1208 809v-254h-424v-301h422v-254h-1124v254h426v301h-426v254h426v405h276v-405h424z" />
<glyph unicode="&#xb2;" horiz-adv-x="1011" d="M971 883q0 -61 -13.5 -114.5t-51.5 -109t-68.5 -93.5t-105.5 -100.5t-119 -95.5l-148 -114h506v-256h-934v256l201 148l170 124q55 41 122.5 96.5t96 91.5t49 79t20.5 88q0 213 -247 213q-84 0 -181.5 -34t-156.5 -81l-80 244q180 127 418 127q219 0 370.5 -124 t151.5 -345z" />
<glyph unicode="&#xb3;" horiz-adv-x="991" d="M332 580v235h78q233 0 233 143q0 137 -205 138q-160 0 -311 -111l-82 250q74 39 114 57.5t117.5 39t161.5 20.5q221 0 351.5 -105.5t130.5 -288.5q0 -170 -162 -268q82 -47 132 -122.5t50 -164.5q0 -201 -136 -314.5t-366 -113.5q-129 0 -221 33t-192 96l81 250 q145 -123 332 -123q123 0 174.5 41t51.5 131q0 78 -60.5 127.5t-193.5 49.5h-78z" />
<glyph unicode="&#xb4;" horiz-adv-x="657" d="M281 1815h258l-222 -279h-198z" />
<glyph unicode="&#xb5;" horiz-adv-x="1107" d="M1010 1024v-1024h-236l-29 113q-70 -133 -213 -133q-119 0 -170 65v-524h-264v1503h264v-547q0 -246 190.5 -246t190.5 258v535h267z" />
<glyph unicode="&#xb6;" horiz-adv-x="1173" d="M1075 1489v-1690h-213v1469h-172v-1469h-213v781q-188 23 -302 147.5t-114 312.5q0 213 138.5 331t394.5 118h481z" />
<glyph unicode="&#xb7;" horiz-adv-x="503" d="M92 512q0 66 47 113t112.5 47t113 -47t47.5 -113t-47.5 -113t-113 -47t-112.5 47t-47 113z" />
<glyph unicode="&#xb8;" horiz-adv-x="548" d="M178 51h131l-22 -117q74 4 123 -38.5t45 -116.5q-4 -84 -66.5 -135.5t-140.5 -54.5t-156 22l2 131q35 -20 112 -13t77 48q0 45 -57.5 58t-96.5 -3z" />
<glyph unicode="&#xb9;" horiz-adv-x="647" d="M0 1075v256h549v-1331h-275v1075h-274z" />
<glyph unicode="&#xba;" horiz-adv-x="1101" d="M772 506v12q0 156 -54 217.5t-167 61.5t-167 -61.5t-54 -217.5v-12q0 -156 54 -217.5t167 -61.5t167 61.5t54 217.5zM61 506v12q0 268 133.5 399.5t356.5 131.5t356 -131.5t133 -399.5v-12q0 -268 -133 -399.5t-356 -131.5t-356.5 131.5t-133.5 399.5z" />
<glyph unicode="&#xbb;" horiz-adv-x="1179" d="M338 82h-246l330 430l-330 430h246l330 -430zM788 82h-245l329 430l-329 430h245l330 -430z" />
<glyph unicode="&#xbc;" horiz-adv-x="2389" d="M1351 512l369 819h288l-368 -819h407v492h275v-1004h-275v256h-696v256zM1190 1489h221l-651 -1675h-215zM0 1075v256h549v-1331h-275v1075h-274z" />
<glyph unicode="&#xbd;" horiz-adv-x="2319" d="M2279 883q0 -61 -13.5 -114.5t-51.5 -109t-68.5 -93.5t-105.5 -100.5t-119 -95.5l-148 -114h506v-256h-934v256l201 148l170 124q55 41 122.5 96.5t96 91.5t49 79t20.5 88q0 213 -247 213q-84 0 -181.5 -34t-156.5 -81l-80 244q180 127 418 127q219 0 370.5 -124 t151.5 -345zM1190 1489h221l-651 -1675h-215zM0 1075v256h549v-1331h-275v1075h-274z" />
<glyph unicode="&#xbe;" horiz-adv-x="2733" d="M1695 512l369 819h288l-368 -819h407v492h275v-1004h-275v256h-696v256zM1534 1489h221l-651 -1675h-215zM332 580v235h78q233 0 233 143q0 137 -205 138q-160 0 -311 -111l-82 250q74 39 114 57.5t117.5 39t161.5 20.5q221 0 351.5 -105.5t130.5 -288.5 q0 -170 -162 -268q82 -47 132 -122.5t50 -164.5q0 -201 -136 -314.5t-366 -113.5q-129 0 -221 33t-192 96l81 250q145 -123 332 -123q123 0 174.5 41t51.5 131q0 78 -60.5 127.5t-193.5 49.5h-78z" />
<glyph unicode="&#xbf;" horiz-adv-x="1009" d="M854 890.5q0 -65.5 -47 -112.5t-112.5 -47t-112.5 47t-47 112.5t47 113t112.5 47.5t112.5 -47.5t47 -113zM61 80q0 72 26 133t54.5 99t88 80t86.5 57l92 45q14 6 20 10q129 55 129 141h274q0 -115 -68.5 -201t-170.5 -135q-23 -12 -69 -33.5t-72.5 -37t-56 -38t-44 -52 t-14.5 -68.5q0 -166 252 -166q166 0 272 59l80 -245q-156 -68 -352 -68q-236 0 -381.5 109.5t-145.5 310.5z" />
<glyph unicode="&#xc0;" horiz-adv-x="1247" d="M993 0l-98 262h-543l-98 -262h-281l510 1331h281l510 -1331h-281zM623 985l-177 -467h353zM571 1536l-213 279h250l156 -279h-193z" />
<glyph unicode="&#xc1;" horiz-adv-x="1247" d="M993 0l-98 262h-543l-98 -262h-281l510 1331h281l510 -1331h-281zM623 985l-177 -467h353zM645 1815h258l-221 -279h-199z" />
<glyph unicode="&#xc2;" horiz-adv-x="1247" d="M993 0l-98 262h-543l-98 -262h-281l510 1331h281l510 -1331h-281zM623 985l-177 -467h353zM324 1536l186 279h223l189 -279h-195l-102 166h-4l-105 -166h-192z" />
<glyph unicode="&#xc3;" horiz-adv-x="1247" d="M993 0l-98 262h-543l-98 -262h-281l510 1331h281l510 -1331h-281zM623 985l-177 -467h353zM252 1542q0 281 233 281q47 0 88 -20.5t63.5 -46t52.5 -46t59 -20.5q41 0 62 36.5t21 90.5h162q0 -281 -233 -281q-47 0 -88 20.5t-63.5 46t-52.5 46t-58 20.5q-41 0 -62.5 -36 t-21.5 -91h-162z" />
<glyph unicode="&#xc4;" horiz-adv-x="1247" d="M993 0l-98 262h-543l-98 -262h-281l510 1331h281l510 -1331h-281zM623 985l-177 -467h353zM211 1695.5q0 65.5 47 112.5t112.5 47t112.5 -47t47 -112.5t-47 -112.5t-112.5 -47t-112.5 47t-47 112.5zM715 1695.5q0 65.5 47 112.5t112.5 47t112.5 -47t47 -112.5t-47 -112.5 t-112.5 -47t-112.5 47t-47 112.5z" />
<glyph unicode="&#xc5;" horiz-adv-x="1247" d="M993 0l-98 262h-543l-98 -262h-281l510 1331h281l510 -1331h-281zM623 985l-177 -467h353zM622.5 1536q-73.5 0 -128 43t-54.5 117q0 76 54.5 119t128 43t128 -43t54.5 -119q0 -74 -54.5 -117t-128 -43zM622.5 1626q30.5 0 51 19.5t20.5 50.5q0 33 -20.5 52t-51 19 t-51 -19t-20.5 -52q0 -31 20.5 -50.5t51 -19.5z" />
<glyph unicode="&#xc6;" horiz-adv-x="1863" d="M0 0l483 1331h1356v-256h-719v-246h637v-256h-637v-317h719v-256h-993v344h-440l-125 -344h-281zM670 1075l-172 -475h348v475h-176z" />
<glyph unicode="&#xc7;" horiz-adv-x="1097" d="M336 709v-86q0 -391 326 -392q96 0 186 35t131 78l82 -250q-170 -119 -399 -119q-31 0 -80 5l-9 -46q74 4 123 -38.5t45 -116.5q-4 -84 -66.5 -135.5t-140 -54.5t-155.5 22l2 131q35 -20 111.5 -13t76.5 48q0 45 -57 58t-96 -3l37 170q-391 109 -392 621v86 q0 326 162 484.5t439 158.5q207 0 399 -117l-82 -250q-158 111 -317 111q-326 0 -326 -387z" />
<glyph unicode="&#xc8;" horiz-adv-x="1075" d="M373 573v-317h678v-256h-953v1331h953v-256h-678v-246h596v-256h-596zM504 1536l-213 279h250l155 -279h-192z" />
<glyph unicode="&#xc9;" horiz-adv-x="1075" d="M373 573v-317h678v-256h-953v1331h953v-256h-678v-246h596v-256h-596zM653 1815h258l-221 -279h-198z" />
<glyph unicode="&#xca;" horiz-adv-x="1075" d="M373 573v-317h678v-256h-953v1331h953v-256h-678v-246h596v-256h-596zM295 1536l186 279h224l188 -279h-195l-102 166h-4l-105 -166h-192z" />
<glyph unicode="&#xcb;" horiz-adv-x="1075" d="M373 573v-317h678v-256h-953v1331h953v-256h-678v-246h596v-256h-596zM182 1695.5q0 65.5 47 112.5t113 47t113 -47t47 -112.5t-47 -112.5t-113 -47t-113 47t-47 112.5zM686 1695.5q0 65.5 47 112.5t112.5 47t113 -47t47.5 -112.5t-47.5 -112.5t-113 -47t-112.5 47 t-47 112.5z" />
<glyph unicode="&#xcc;" horiz-adv-x="471" d="M98 0v1331h275v-1331h-275zM145 1536l-213 279h250l156 -279h-193z" />
<glyph unicode="&#xcd;" horiz-adv-x="471" d="M98 0v1331h275v-1331h-275zM295 1815h258l-221 -279h-199z" />
<glyph unicode="&#xce;" horiz-adv-x="471" d="M98 0v1331h275v-1331h-275zM-63 1536l186 279h223l189 -279h-195l-102 166h-5l-104 -166h-192z" />
<glyph unicode="&#xcf;" horiz-adv-x="471" d="M98 0v1331h275v-1331h-275zM-176 1695.5q0 65.5 47 112.5t112.5 47t112.5 -47t47 -112.5t-47 -112.5t-112.5 -47t-112.5 47t-47 112.5zM328 1695.5q0 65.5 47 112.5t112.5 47t112.5 -47t47 -112.5t-47 -112.5t-112.5 -47t-112.5 47t-47 112.5z" />
<glyph unicode="&#xd0;" horiz-adv-x="1257" d="M162 0v582h-162v213h162v536h416q618 0 618 -622v-86q0 -623 -618 -623h-416zM922 623v86q0 203 -83 284.5t-261 81.5h-142v-280h170v-213h-170v-326h142q178 0 261 82t83 285z" />
<glyph unicode="&#xd1;" horiz-adv-x="1230" d="M98 0v1331h260l500 -809v809h275v-1331h-261l-499 807v-807h-275zM244 1542q0 281 233 281q47 0 88 -20.5t63.5 -46t52.5 -46t58 -20.5q41 0 62.5 36.5t21.5 90.5h162q0 -281 -233 -281q-47 0 -88 20.5t-63.5 46t-52.5 46t-59 20.5q-41 0 -62 -36t-21 -91h-162z" />
<glyph unicode="&#xd2;" horiz-adv-x="1241" d="M903 623v82q0 211 -73.5 301t-209 90t-209 -90.5t-73.5 -300.5v-82q0 -211 73.5 -301.5t209 -90.5t209 90.5t73.5 301.5zM61 623v82q0 332 150.5 489.5t409 157.5t409 -158t150.5 -489v-82q0 -332 -150.5 -490t-409 -158t-409 158t-150.5 490zM530 1536l-213 279h250 l156 -279h-193z" />
<glyph unicode="&#xd3;" horiz-adv-x="1241" d="M903 623v82q0 211 -73.5 301t-209 90t-209 -90.5t-73.5 -300.5v-82q0 -211 73.5 -301.5t209 -90.5t209 90.5t73.5 301.5zM61 623v82q0 332 150.5 489.5t409 157.5t409 -158t150.5 -489v-82q0 -332 -150.5 -490t-409 -158t-409 158t-150.5 490zM633 1815h258l-221 -279 h-199z" />
<glyph unicode="&#xd4;" horiz-adv-x="1241" d="M903 623v82q0 211 -73.5 301t-209 90t-209 -90.5t-73.5 -300.5v-82q0 -211 73.5 -301.5t209 -90.5t209 90.5t73.5 301.5zM61 623v82q0 332 150.5 489.5t409 157.5t409 -158t150.5 -489v-82q0 -332 -150.5 -490t-409 -158t-409 158t-150.5 490zM322 1536l186 279h223 l189 -279h-195l-102 166h-5l-104 -166h-192z" />
<glyph unicode="&#xd5;" horiz-adv-x="1241" d="M903 623v82q0 211 -73.5 301t-209 90t-209 -90.5t-73.5 -300.5v-82q0 -211 73.5 -301.5t209 -90.5t209 90.5t73.5 301.5zM61 623v82q0 332 150.5 489.5t409 157.5t409 -158t150.5 -489v-82q0 -332 -150.5 -490t-409 -158t-409 158t-150.5 490zM250 1542q0 281 233 281 q47 0 88 -20.5t64.5 -46t52.5 -46t57 -20.5q41 0 62.5 36.5t21.5 90.5h162q0 -281 -233 -281q-47 0 -88 20.5t-64.5 46t-52.5 46t-57 20.5q-41 0 -62.5 -36t-21.5 -91h-162z" />
<glyph unicode="&#xd6;" horiz-adv-x="1241" d="M903 623v82q0 211 -73.5 301t-209 90t-209 -90.5t-73.5 -300.5v-82q0 -211 73.5 -301.5t209 -90.5t209 90.5t73.5 301.5zM61 623v82q0 332 150.5 489.5t409 157.5t409 -158t150.5 -489v-82q0 -332 -150.5 -490t-409 -158t-409 158t-150.5 490zM209 1695.5 q0 65.5 47 112.5t112.5 47t112.5 -47t47 -112.5t-47 -112.5t-112.5 -47t-112.5 47t-47 112.5zM713 1695.5q0 65.5 47 112.5t112.5 47t112.5 -47t47 -112.5t-47 -112.5t-112.5 -47t-112.5 47t-47 112.5z" />
<glyph unicode="&#xd7;" horiz-adv-x="1339" d="M672 848l395 401l188 -186l-401 -399l403 -396l-190 -192l-397 403l-400 -403l-188 190l401 398l-401 399l188 188z" />
<glyph unicode="&#xd8;" horiz-adv-x="1241" d="M61 623v82q0 332 150.5 489.5t409 157.5t409 -158t150.5 -489v-82q0 -332 -150.5 -490t-409 -158t-409 158t-150.5 490zM903 623v82q0 195 -69 294l-252 -766q12 -2 39 -2q135 0 208.5 90.5t73.5 301.5zM338 623q0 -193 63 -289l244 760q-4 0 -12 1t-12 1 q-135 0 -209 -90.5t-74 -300.5v-82z" />
<glyph unicode="&#xd9;" horiz-adv-x="1239" d="M82 631v700h274v-700q0 -217 68 -308.5t197 -91.5q127 0 194.5 91.5t67.5 308.5v700h274v-700q0 -336 -144.5 -496t-392 -160t-393 159t-145.5 497zM528 1536l-213 279h250l156 -279h-193z" />
<glyph unicode="&#xda;" horiz-adv-x="1239" d="M82 631v700h274v-700q0 -217 68 -308.5t197 -91.5q127 0 194.5 91.5t67.5 308.5v700h274v-700q0 -336 -144.5 -496t-392 -160t-393 159t-145.5 497zM678 1815h258l-221 -279h-199z" />
<glyph unicode="&#xdb;" horiz-adv-x="1239" d="M82 631v700h274v-700q0 -217 68 -308.5t197 -91.5q127 0 194.5 91.5t67.5 308.5v700h274v-700q0 -336 -144.5 -496t-392 -160t-393 159t-145.5 497zM319 1536l187 279h223l189 -279h-195l-102 166h-5l-104 -166h-193z" />
<glyph unicode="&#xdc;" horiz-adv-x="1239" d="M82 631v700h274v-700q0 -217 68 -308.5t197 -91.5q127 0 194.5 91.5t67.5 308.5v700h274v-700q0 -336 -144.5 -496t-392 -160t-393 159t-145.5 497zM207 1695.5q0 65.5 47 112.5t112.5 47t112.5 -47t47 -112.5t-47 -112.5t-112.5 -47t-112.5 47t-47 112.5zM711 1695.5 q0 65.5 47 112.5t112.5 47t112.5 -47t47 -112.5t-47 -112.5t-112.5 -47t-112.5 47t-47 112.5z" />
<glyph unicode="&#xdd;" horiz-adv-x="1294" d="M1294 1331l-508 -815v-516h-276v512l-510 819h311l336 -569l336 569h311zM707 1815h258l-222 -279h-198z" />
<glyph unicode="&#xde;" horiz-adv-x="1193" d="M98 0v1434h275v-205h245q266 0 390.5 -112.5t124.5 -313.5q0 -424 -515 -424h-245v-379h-275zM618 973h-245v-338h245q131 0 185.5 41t54.5 127t-54.5 128t-185.5 42z" />
<glyph unicode="&#xdf;" horiz-adv-x="1130" d="M1069 352q0 -184 -127 -280.5t-346 -96.5q-86 0 -150 25v268q66 -37 160 -37q186 0 187 88q0 41 -53.5 72t-117 52.5t-116.5 82t-53 154.5q0 68 39.5 122t87 81.5t87.5 61.5t40 65q0 41 -39 64.5t-101 23.5q-102 0 -148 -60.5t-46 -199.5v-838h-275v829q0 264 126 393.5 t351 129.5q184 0 296 -93.5t112 -252.5q0 -63 -26.5 -113.5t-64.5 -80.5t-76 -52.5t-64.5 -42t-26.5 -39.5q0 -18 53 -45t119 -54.5t119 -88t53 -138.5z" />
<glyph unicode="&#xe0;" horiz-adv-x="1009" d="M948 659v-630q-184 -53 -461 -54q-184 0 -317 93.5t-133 263.5v12q0 147 129 229t369 89q25 2 73.5 2t73.5 2v34q0 96 -209 97q-162 0 -309 -64l-78 240q201 76 408 76q454 -1 454 -390zM682 240v219q-203 0 -291 -22.5t-88 -92.5v-12q0 -51 53.5 -78t137.5 -27 q108 1 188 13zM442 1147l-213 278h250l156 -278h-193z" />
<glyph unicode="&#xe1;" horiz-adv-x="1009" d="M948 659v-630q-184 -53 -461 -54q-184 0 -317 93.5t-133 263.5v12q0 147 129 229t369 89q25 2 73.5 2t73.5 2v34q0 96 -209 97q-162 0 -309 -64l-78 240q201 76 408 76q454 -1 454 -390zM682 240v219q-203 0 -291 -22.5t-88 -92.5v-12q0 -51 53.5 -78t137.5 -27 q108 1 188 13zM530 1425h258l-221 -278h-198z" />
<glyph unicode="&#xe2;" horiz-adv-x="1009" d="M948 659v-630q-184 -53 -461 -54q-184 0 -317 93.5t-133 263.5v12q0 147 129 229t369 89q25 2 73.5 2t73.5 2v34q0 96 -209 97q-162 0 -309 -64l-78 240q201 76 408 76q454 -1 454 -390zM682 240v219q-203 0 -291 -22.5t-88 -92.5v-12q0 -51 53.5 -78t137.5 -27 q108 1 188 13zM233 1147l187 278h223l188 -278h-194l-102 166h-5l-104 -166h-193z" />
<glyph unicode="&#xe3;" horiz-adv-x="1009" d="M948 659v-630q-184 -53 -461 -54q-184 0 -317 93.5t-133 263.5v12q0 147 129 229t369 89q25 2 73.5 2t73.5 2v34q0 96 -209 97q-162 0 -309 -64l-78 240q201 76 408 76q454 -1 454 -390zM682 240v219q-203 0 -291 -22.5t-88 -92.5v-12q0 -51 53.5 -78t137.5 -27 q108 1 188 13zM160 1153q0 281 233 281q47 0 88 -20.5t64.5 -46.5t52.5 -46.5t57 -20.5q41 0 62.5 37t21.5 90h162q0 -281 -233 -280q-47 0 -88 20.5t-64.5 46t-52.5 46t-57 20.5q-41 0 -62.5 -36t-21.5 -91h-162z" />
<glyph unicode="&#xe4;" horiz-adv-x="1009" d="M948 659v-630q-184 -53 -461 -54q-184 0 -317 93.5t-133 263.5v12q0 147 129 229t369 89q25 2 73.5 2t73.5 2v34q0 96 -209 97q-162 0 -309 -64l-78 240q201 76 408 76q454 -1 454 -390zM682 240v219q-203 0 -291 -22.5t-88 -92.5v-12q0 -51 53.5 -78t137.5 -27 q108 1 188 13zM117 1306.5q0 65.5 47 112.5t112.5 47t112.5 -47t47 -112.5t-47 -112.5t-112.5 -47t-112.5 47t-47 112.5zM621 1306.5q0 65.5 47 112.5t112.5 47t112.5 -47t47 -112.5t-47 -112.5t-112.5 -47t-112.5 47t-47 112.5z" />
<glyph unicode="&#xe5;" horiz-adv-x="1009" d="M948 659v-630q-184 -53 -461 -54q-184 0 -317 93.5t-133 263.5v12q0 147 129 229t369 89q25 2 73.5 2t73.5 2v34q0 96 -209 97q-162 0 -309 -64l-78 240q201 76 408 76q454 -1 454 -390zM682 240v219q-203 0 -291 -22.5t-88 -92.5v-12q0 -51 53.5 -78t137.5 -27 q108 1 188 13zM528.5 1147q-73.5 0 -128 43t-54.5 117q0 76 54.5 118.5t128 42.5t128 -43t54.5 -118q0 -74 -54.5 -117t-128 -43zM528.5 1237q30.5 0 51 19.5t20.5 50.5q0 33 -20.5 52t-51 19t-51 -19.5t-20.5 -51.5q0 -31 20.5 -50.5t51 -19.5z" />
<glyph unicode="&#xe6;" horiz-adv-x="1658" d="M1595 518v-110h-639v-11q0 -72 64.5 -121t169.5 -49q180 0 309 52l80 -234q-178 -70 -389 -70q-115 0 -209 42t-147 114q-57 -76 -148.5 -116t-253.5 -40q-178 0 -286.5 85t-108.5 255v29q0 143 130 226t353 89q27 0 81 2.5t81 2.5v38q0 94 -209 95q-166 0 -309 -62 l-78 240q203 74 408 74q225 0 340 -99q113 98 305 99q213 0 334.5 -130.5t121.5 -400.5zM682 371v86q-193 0 -286 -21.5t-93 -93.5v-27q0 -121 191 -120q82 0 135 43t53 133zM956 614v-10h365v4v6q0 86 -51 134.5t-131 48.5t-131.5 -48.5t-51.5 -134.5z" />
<glyph unicode="&#xe7;" horiz-adv-x="909" d="M41 512v12q0 256 141.5 390.5t376.5 134.5q160 0 315 -91l-75 -233q-106 72 -240 72q-123 0 -186.5 -62.5t-63.5 -210.5v-12q0 -150 74 -217.5t197 -67.5q133 0 237 56l76 -232q-135 -76 -313 -76q-27 0 -72 5q0 -8 -4 -22.5t-4 -23.5q74 4 123 -38.5t45 -116.5 q-4 -84 -66.5 -135.5t-140.5 -54.5t-156 22q0 20 1 65t1 66q35 -20 112 -13t77 48q0 45 -57.5 58t-96.5 -3l39 174q-162 53 -251 188.5t-89 317.5z" />
<glyph unicode="&#xe8;" horiz-adv-x="1036" d="M975 524v-110h-680v-11q0 -76 67.5 -126t186.5 -50q195 0 332 43l77 -239q-176 -55 -409 -56q-528 0 -529 525v24q0 268 125 396.5t352.5 128.5t352.5 -128.5t125 -396.5zM295 621v-11h405v11q0 82 -54 129t-148.5 47t-148.5 -47t-54 -129zM428 1147l-213 278h250 l156 -278h-193z" />
<glyph unicode="&#xe9;" horiz-adv-x="1036" d="M975 524v-110h-680v-11q0 -76 67.5 -126t186.5 -50q195 0 332 43l77 -239q-176 -55 -409 -56q-528 0 -529 525v24q0 268 125 396.5t352.5 128.5t352.5 -128.5t125 -396.5zM295 621v-11h405v11q0 82 -54 129t-148.5 47t-148.5 -47t-54 -129zM578 1425h258l-222 -278h-198z " />
<glyph unicode="&#xea;" horiz-adv-x="1036" d="M975 524v-110h-680v-11q0 -76 67.5 -126t186.5 -50q195 0 332 43l77 -239q-176 -55 -409 -56q-528 0 -529 525v24q0 268 125 396.5t352.5 128.5t352.5 -128.5t125 -396.5zM295 621v-11h405v11q0 82 -54 129t-148.5 47t-148.5 -47t-54 -129zM219 1147l187 278h223 l188 -278h-194l-103 166h-4l-104 -166h-193z" />
<glyph unicode="&#xeb;" horiz-adv-x="1036" d="M975 524v-110h-680v-11q0 -76 67.5 -126t186.5 -50q195 0 332 43l77 -239q-176 -55 -409 -56q-528 0 -529 525v24q0 268 125 396.5t352.5 128.5t352.5 -128.5t125 -396.5zM295 621v-11h405v11q0 82 -54 129t-148.5 47t-148.5 -47t-54 -129zM106 1306.5q0 65.5 47.5 112.5 t113 47t112.5 -47t47 -112.5t-47 -112.5t-112.5 -47t-113 47t-47.5 112.5zM610 1306.5q0 65.5 47.5 112.5t113 47t112.5 -47t47 -112.5t-47 -112.5t-112.5 -47t-113 47t-47.5 112.5z" />
<glyph unicode="&#xec;" horiz-adv-x="536" d="M178 1147l-213 278h250l156 -278h-193zM135 0v1024h266v-1024h-266z" />
<glyph unicode="&#xed;" horiz-adv-x="536" d="M328 1425h258l-221 -278h-199zM135 0v1024h266v-1024h-266z" />
<glyph unicode="&#xee;" horiz-adv-x="536" d="M-31 1147l187 278h223l188 -278h-194l-103 166h-4l-104 -166h-193zM135 0v1024h266v-1024h-266z" />
<glyph unicode="&#xef;" horiz-adv-x="536" d="M-143 1306.5q0 65.5 47 112.5t112.5 47t112.5 -47t47 -112.5t-47 -112.5t-112.5 -47t-112.5 47t-47 112.5zM360 1306.5q0 65.5 47.5 112.5t113 47t112.5 -47t47 -112.5t-47 -112.5t-112.5 -47t-113 47t-47.5 112.5zM135 0v1024h266v-1024h-266z" />
<glyph unicode="&#xf0;" horiz-adv-x="1101" d="M295 1038l166 166q-104 45 -268 58l69 233q205 -16 385 -104l125 125l121 -121l-102 -103q123 -106 186 -255.5t63 -395.5q0 -117 -14 -211t-51 -181t-97.5 -145.5t-155.5 -93.5t-222 -35q-190 0 -314.5 111t-124.5 328q0 215 127 318.5t332 103.5q135 0 236 -39 q-20 203 -148 313l-192 -192zM528 600q-193 0 -192 -186q0 -90 51 -136.5t121 -46.5q143 0 195.5 79t52.5 243q-95 47 -228 47z" />
<glyph unicode="&#xf1;" d="M98 0v995q172 53 457 54q205 0 330 -117t125 -336v-596h-265v616q0 180 -210 181q-100 0 -170 -11v-786h-267zM166 1153q0 281 233 281q47 0 88 -20.5t63.5 -46.5t52.5 -46.5t59 -20.5q41 0 62 37t21 90h162q0 -281 -233 -280q-47 0 -88 20.5t-63.5 46t-52.5 46t-58 20.5 q-41 0 -62.5 -36t-21.5 -91h-162z" />
<glyph unicode="&#xf2;" horiz-adv-x="1101" d="M772 506v12q0 156 -54 217.5t-167 61.5t-167 -61.5t-54 -217.5v-12q0 -156 54 -217.5t167 -61.5t167 61.5t54 217.5zM61 506v12q0 268 133.5 399.5t356.5 131.5t356 -131.5t133 -399.5v-12q0 -268 -133 -399.5t-356 -131.5t-356.5 131.5t-133.5 399.5zM469 1147l-213 278 h250l156 -278h-193z" />
<glyph unicode="&#xf3;" horiz-adv-x="1101" d="M772 506v12q0 156 -54 217.5t-167 61.5t-167 -61.5t-54 -217.5v-12q0 -156 54 -217.5t167 -61.5t167 61.5t54 217.5zM61 506v12q0 268 133.5 399.5t356.5 131.5t356 -131.5t133 -399.5v-12q0 -268 -133 -399.5t-356 -131.5t-356.5 131.5t-133.5 399.5zM610 1425h258 l-221 -278h-198z" />
<glyph unicode="&#xf4;" horiz-adv-x="1101" d="M772 506v12q0 156 -54 217.5t-167 61.5t-167 -61.5t-54 -217.5v-12q0 -156 54 -217.5t167 -61.5t167 61.5t54 217.5zM61 506v12q0 268 133.5 399.5t356.5 131.5t356 -131.5t133 -399.5v-12q0 -268 -133 -399.5t-356 -131.5t-356.5 131.5t-133.5 399.5zM252 1147l186 278 h224l188 -278h-195l-102 166h-4l-105 -166h-192z" />
<glyph unicode="&#xf5;" horiz-adv-x="1101" d="M772 506v12q0 156 -54 217.5t-167 61.5t-167 -61.5t-54 -217.5v-12q0 -156 54 -217.5t167 -61.5t167 61.5t54 217.5zM61 506v12q0 268 133.5 399.5t356.5 131.5t356 -131.5t133 -399.5v-12q0 -268 -133 -399.5t-356 -131.5t-356.5 131.5t-133.5 399.5zM180 1153 q0 281 234 281q47 0 88 -20.5t64.5 -46.5t52 -46.5t57.5 -20.5q41 0 62.5 37t21.5 90h162q0 -281 -234 -280q-47 0 -88 20.5t-64.5 46t-52 46t-57.5 20.5q-41 0 -62.5 -36t-21.5 -91h-162z" />
<glyph unicode="&#xf6;" horiz-adv-x="1101" d="M772 506v12q0 156 -54 217.5t-167 61.5t-167 -61.5t-54 -217.5v-12q0 -156 54 -217.5t167 -61.5t167 61.5t54 217.5zM61 506v12q0 268 133.5 399.5t356.5 131.5t356 -131.5t133 -399.5v-12q0 -268 -133 -399.5t-356 -131.5t-356.5 131.5t-133.5 399.5zM139 1306.5 q0 65.5 47 112.5t113 47t113 -47t47 -112.5t-47 -112.5t-113 -47t-113 47t-47 112.5zM643 1306.5q0 65.5 47 112.5t112.5 47t113 -47t47.5 -112.5t-47.5 -112.5t-113 -47t-112.5 47t-47 112.5z" />
<glyph unicode="&#xf7;" horiz-adv-x="1290" d="M485 268.5q0 65.5 47.5 112.5t113 47t112.5 -47t47 -112.5t-47 -112.5t-112.5 -47t-113 47t-47.5 112.5zM485 1026.5q0 65.5 47.5 112.5t113 47t112.5 -47t47 -112.5t-47 -113t-112.5 -47.5t-113 47.5t-47.5 113zM1208 774v-254h-1126v254h1126z" />
<glyph unicode="&#xf8;" horiz-adv-x="1101" d="M61 506v12q0 268 133.5 399.5t356.5 131.5t356 -131.5t133 -399.5v-12q0 -268 -133 -399.5t-356 -131.5t-356.5 131.5t-133.5 399.5zM772 506v12q0 141 -47 207l-221 -496q14 -2 47 -2q20 0 57 4q82 12 123 77t41 198zM330 506q0 -141 45 -205l217 494q-6 0 -20.5 1 t-20.5 1q-113 0 -167 -61.5t-54 -217.5v-12z" />
<glyph unicode="&#xf9;" d="M991 1024v-995q-213 -53 -456 -54q-205 0 -330 117t-125 336v596h264v-616q0 -180 211 -181q113 0 170 11v786h266zM444 1147l-213 278h250l156 -278h-193z" />
<glyph unicode="&#xfa;" d="M991 1024v-995q-213 -53 -456 -54q-205 0 -330 117t-125 336v596h264v-616q0 -180 211 -181q113 0 170 11v786h266zM594 1425h258l-221 -278h-199z" />
<glyph unicode="&#xfb;" d="M991 1024v-995q-213 -53 -456 -54q-205 0 -330 117t-125 336v596h264v-616q0 -180 211 -181q113 0 170 11v786h266zM236 1147l186 278h223l189 -278h-195l-102 166h-5l-104 -166h-192z" />
<glyph unicode="&#xfc;" d="M991 1024v-995q-213 -53 -456 -54q-205 0 -330 117t-125 336v596h264v-616q0 -180 211 -181q113 0 170 11v786h266zM123 1306.5q0 65.5 47 112.5t112.5 47t112.5 -47t47 -112.5t-47 -112.5t-112.5 -47t-112.5 47t-47 112.5zM627 1306.5q0 65.5 47 112.5t112.5 47 t112.5 -47t47 -112.5t-47 -112.5t-112.5 -47t-112.5 47t-47 112.5z" />
<glyph unicode="&#xfd;" d="M991 1024v-1085q0 -215 -131 -333t-344 -118q-238 0 -416 98l78 236q137 -82 338 -82q96 0 152.5 50t56.5 149v55q-68 -18 -190 -19q-199 0 -327 113t-128 340v596h264v-616q0 -180 211 -181q100 0 170 11v786h266zM594 1425h258l-221 -278h-199z" />
<glyph unicode="&#xfe;" horiz-adv-x="1073" d="M98 -512v1946h267v-519q72 133 251 134q168 0 282 -136.5t114 -394.5v-24q0 -250 -114 -384.5t-282 -134.5q-172 0 -254 131v-618h-264zM743 494v24q0 160 -47 219.5t-141 59.5q-182 0 -190 -256v-47q0 -152 49 -215.5t141 -63.5q94 0 141 59.5t47 219.5z" />
<glyph unicode="&#xff;" d="M991 1024v-1085q0 -215 -131 -333t-344 -118q-238 0 -416 98l78 236q137 -82 338 -82q96 0 152.5 50t56.5 149v55q-68 -18 -190 -19q-199 0 -327 113t-128 340v596h264v-616q0 -180 211 -181q100 0 170 11v786h266zM125 1306.5q0 65.5 47 112.5t112.5 47t112.5 -47 t47 -112.5t-47 -112.5t-112.5 -47t-112.5 47t-47 112.5zM629 1306.5q0 65.5 47 112.5t112.5 47t112.5 -47t47 -112.5t-47 -112.5t-112.5 -47t-112.5 47t-47 112.5z" />
<glyph unicode="&#x152;" horiz-adv-x="1880" d="M61 623v82q0 332 150.5 489.5t409.5 157.5q160 0 282 -62v41h952v-256h-677v-246h596v-256h-596v-317h677v-256h-952v37q-123 -61 -282 -62q-258 0 -409 158t-151 490zM903 623v102q-4 199 -76.5 285t-205.5 86q-135 0 -209 -90.5t-74 -300.5v-82q0 -211 73.5 -301.5 t209 -90.5t209 90.5t73.5 301.5z" />
<glyph unicode="&#x153;" horiz-adv-x="1683" d="M1620 518v-110h-639v-11q0 -72 64.5 -121t168.5 -49q184 0 328 82l80 -233q-174 -100 -408 -101q-242 0 -370 123q-121 -123 -326 -123t-331 131.5t-126 399.5v12q0 268 126 399.5t331 131.5q199 0 320 -119q119 119 325 119q213 0 335 -130.5t122 -400.5zM707 494v41 q-2 143 -49.5 202.5t-139.5 59.5q-94 0 -141 -62.5t-47 -216.5v-12q0 -154 47 -216.5t141 -62.5q92 0 140.5 60t48.5 207zM981 614v-10h365v4v6q0 86 -51.5 134.5t-131.5 48.5t-131 -48.5t-51 -134.5z" />
<glyph unicode="&#x178;" horiz-adv-x="1294" d="M1294 1331l-508 -815v-516h-276v512l-510 819h311l336 -569l336 569h311zM236 1695.5q0 65.5 47 112.5t112.5 47t112.5 -47t47 -112.5t-47 -112.5t-112.5 -47t-112.5 47t-47 112.5zM739 1695.5q0 65.5 47.5 112.5t113 47t112.5 -47t47 -112.5t-47 -112.5t-112.5 -47 t-113 47t-47.5 112.5z" />
<glyph unicode="&#x2c6;" horiz-adv-x="917" d="M160 1536l186 279h223l189 -279h-195l-102 166h-4l-105 -166h-192z" />
<glyph unicode="&#x2dc;" horiz-adv-x="1060" d="M160 1542q0 281 233 281q47 0 88 -20.5t64.5 -46t52.5 -46t57 -20.5q41 0 62.5 36.5t21.5 90.5h162q0 -281 -233 -281q-47 0 -88 20.5t-64.5 46t-52.5 46t-57 20.5q-41 0 -62.5 -36t-21.5 -91h-162z" />
<glyph unicode="&#x2013;" horiz-adv-x="1290" d="M82 541v254h1126v-254h-1126z" />
<glyph unicode="&#x2014;" horiz-adv-x="1705" d="M82 483v203h1542v-203h-1542z" />
<glyph unicode="&#x2018;" horiz-adv-x="524" d="M426 1118q0 -66 -47 -113t-113 -47q-82 0 -125 63.5t-43 158.5q0 106 55.5 228t186.5 187l78 -73q-119 -111 -129 -246q59 -8 98 -52.5t39 -105.5z" />
<glyph unicode="&#x2019;" horiz-adv-x="524" d="M98 1436q0 66 47.5 112.5t112.5 46.5q82 0 125 -63.5t43 -157.5q0 -106 -55.5 -228t-186.5 -188l-78 74q119 111 130 246q-59 8 -98.5 52.5t-39.5 105.5z" />
<glyph unicode="&#x201a;" horiz-adv-x="487" d="M61 133q0 66 47.5 113t112.5 47q82 0 125 -63.5t43 -157.5q0 -106 -55 -228.5t-187 -187.5l-77 74q119 111 129 245q-59 8 -98.5 52.5t-39.5 105.5z" />
<glyph unicode="&#x201c;" horiz-adv-x="954" d="M856 1118q0 -66 -47 -113t-113 -47q-82 0 -125 63.5t-43 158.5q0 106 55.5 228t186.5 187l78 -73q-119 -111 -129 -246q59 -8 98 -52.5t39 -105.5zM426 1118q0 -66 -47 -113t-113 -47q-82 0 -125 63.5t-43 158.5q0 106 55.5 228t186.5 187l78 -73q-119 -111 -129 -246 q59 -8 98 -52.5t39 -105.5z" />
<glyph unicode="&#x201d;" horiz-adv-x="954" d="M98 1436q0 66 47.5 112.5t112.5 46.5q82 0 125 -63.5t43 -157.5q0 -106 -55.5 -228t-186.5 -188l-78 74q119 111 130 246q-59 8 -98.5 52.5t-39.5 105.5zM528 1436q0 66 47.5 112.5t112.5 46.5q82 0 125 -63.5t43 -157.5q0 -106 -55.5 -228t-186.5 -188l-77 74 q119 111 129 246q-59 8 -98.5 52.5t-39.5 105.5z" />
<glyph unicode="&#x201e;" horiz-adv-x="917" d="M492 133q0 66 47 113t112 47q82 0 125 -63.5t43 -157.5q0 -106 -55 -228.5t-186 -187.5l-78 74q119 111 129 245q-59 8 -98 52.5t-39 105.5zM61 133q0 66 47.5 113t112.5 47q82 0 125 -63.5t43 -157.5q0 -106 -55 -228.5t-187 -187.5l-77 74q119 111 129 245 q-59 8 -98.5 52.5t-39.5 105.5z" />
<glyph unicode="&#x2022;" horiz-adv-x="747" d="M666 651.5q0 -102.5 -80 -183.5t-213 -81q-131 0 -211 81t-80 183q0 104 81 185.5t210 81.5q127 0 210 -82t83 -184.5z" />
<glyph unicode="&#x2026;" horiz-adv-x="1892" d="M1481 133.5q0 65.5 47 112.5t112.5 47t112.5 -47t47 -112.5t-47 -113t-112.5 -47.5t-112.5 47.5t-47 113zM786 133.5q0 65.5 47.5 112.5t113 47t112.5 -47t47 -112.5t-47 -113t-112.5 -47.5t-113 47.5t-47.5 113zM92 133.5q0 65.5 47 112.5t112.5 47t113 -47t47.5 -112.5 t-47.5 -113t-113 -47.5t-112.5 47.5t-47 113z" />
<glyph unicode="&#x2039;" horiz-adv-x="665" d="M604 322v-254l-543 432v94l543 430v-254l-323 -225z" />
<glyph unicode="&#x203a;" horiz-adv-x="665" d="M61 68v254l324 223l-324 225v254l543 -430v-94z" />
<glyph unicode="&#x2044;" horiz-adv-x="661" d="M543 1489h221l-651 -1675h-215z" />
<glyph unicode="&#x20ac;" horiz-adv-x="1310" d="M489 696v-65v-37h525v-193h-484q76 -170 306 -170q102 0 197 35t141 78l100 -235q-201 -133 -438 -134q-231 0 -387 104.5t-209 321.5h-199v193h174v37v65v25h-174v192h197q51 223 206.5 331t391.5 108q238 0 438 -131l-100 -236q-166 111 -338 111q-233 0 -312 -183h490 v-192h-525v-25z" />
<glyph unicode="&#x2122;" horiz-adv-x="1972" d="M1862 1331v-817h-209v651l-156 -651h-190l-162 651v-651h-209v817h356l113 -536l111 536h346zM762 1331v-188h-240v-629h-209v629h-239v188h688z" />
<glyph unicode="&#xe000;" horiz-adv-x="1025" d="M0 1025h1025v-1025h-1025v1025z" />
<glyph unicode="&#xfb01;" horiz-adv-x="1167" d="M98 0v1067q0 391 396 391q154 0 278 -53l-80 -242q-86 43 -198 43q-129 0 -129 -137v-45h327v-252h-327v-772h-267zM797 0v1024h266v-1024h-266zM770 1290.5q0 65.5 47 112.5t112.5 47t113 -47t47.5 -112.5t-47.5 -113t-113 -47.5t-112.5 47.5t-47 113z" />
<glyph unicode="&#xfb02;" horiz-adv-x="1257" d="M98 0v1067q0 391 396 391q154 0 278 -53l-80 -242q-86 43 -198 43q-129 0 -129 -137v-45h327v-252h-327v-772h-267zM791 371v1063h266v-1065q0 -137 67 -138q29 0 54 13l77 -238q-92 -27 -172 -26q-135 0 -213.5 93t-78.5 298z" />
<glyph unicode="&#xfb03;" horiz-adv-x="1859" d="M1488 0v1024h267v-1024h-267zM1462 1290.5q0 65.5 47 112.5t112.5 47t112.5 -47t47 -112.5t-47 -113t-112.5 -47.5t-112.5 47.5t-47 113zM790 0v1067q0 391 396 391q154 0 278 -53l-80 -242q-86 43 -198 43q-129 0 -129 -137v-45h327v-252h-327v-772h-267zM98 0v1067 q0 391 396 391q154 0 278 -53l-80 -242q-86 43 -198 43q-129 0 -129 -137v-45h327v-252h-327v-772h-267z" />
<glyph unicode="&#xfb04;" horiz-adv-x="1947" d="M1482 371v1063h267v-1065q0 -137 67 -138q29 0 53 13l78 -238q-92 -27 -172 -26q-135 0 -214 93t-79 298zM790 0v1067q0 391 396 391q154 0 278 -53l-80 -242q-86 43 -198 43q-129 0 -129 -137v-45h327v-252h-327v-772h-267zM98 0v1067q0 391 396 391q154 0 278 -53 l-80 -242q-86 43 -198 43q-129 0 -129 -137v-45h327v-252h-327v-772h-267z" />
</font>
</defs>
</svg>
