<?xml version="1.0" encoding="UTF-8"?><svg id="a" xmlns="http://www.w3.org/2000/svg" viewBox="0 0 2101.77 1028.75"><path d="M1981.66,0H120.08C53.87,0,0,53.9,0,120.16V908.59c0,66.26,53.87,120.16,120.08,120.16H1981.66c66.23,0,120.11-53.9,120.11-120.16V120.16c0-66.26-53.88-120.16-120.11-120.16Zm0,21.27c54.68,0,98.85,44.22,98.85,98.89V908.59c0,54.7-44.17,98.89-98.85,98.89H120.08c-54.64,0-98.83-44.19-98.83-98.89V120.16c0-54.67,44.19-98.89,98.83-98.89H1981.66Z" fill="#fff" fill-rule="evenodd"/><rect x="302.63" y="217.86" width="155.52" height="600.01" fill="#fff"/><path d="M790.12,217.86l-36.04,280.38-22.1-152.4c-6.68-48.85-12.78-91.62-18.89-127.98h-201.74V817.87h136.34l.58-396.11,57.27,396.11h97.09l54.64-404.83,.3,404.83h136.02V217.86h-203.47Z" fill="#fff" fill-rule="evenodd"/><path d="M1236.93,326.07c6.08,3.5,10.17,9.03,11.93,16.87,1.73,7.56,2.61,25,2.61,52.06v232.35c0,40.16-2.61,64.59-7.86,73.62-5.23,9-18.88,13.35-41.28,13.35V320.56c16.86,0,28.47,1.73,34.6,5.51Zm-1.47,491.8c37.21,0,65.12-2.04,83.74-6.11,18.28-4.06,34.01-11.04,46.5-21.52,12.49-10.2,21.52-24.43,26.46-42.46,5.22-18.04,8.12-54.08,8.12-107.9v-210.57c0-56.72-2.33-94.8-5.51-114.29-3.49-19.2-12.21-36.95-26.17-52.62-13.66-15.74-34.01-27.07-60.47-34.03-26.46-6.99-70.06-10.51-145.34-10.51h-116V817.87h188.67Z" fill="#fff" fill-rule="evenodd"/><path d="M1655.83,672.46c0,28.79-1.48,47.4-4.38,54.95-2.89,7.59-15.41,11.33-25.01,11.33s-15.41-3.46-18.59-11.01c-2.89-7.28-4.65-24.15-4.65-50.62v-158.5c0-27.36,1.44-44.23,4.08-51.21,2.9-6.68,9-10.17,18-10.17,9.6,0,22.37,4.09,25.61,11.64,3.18,7.84,4.94,24.43,4.94,49.74v153.85Zm-202.64-454.6V817.87h140.13l9.88-38.11c12.49,15.42,26.45,26.75,41.84,34.62,15.44,7.55,38.1,11.33,55.81,11.33,24.44,0,45.93-6.39,63.67-19.48,18.03-12.78,29.39-28.21,34.04-45.67,4.94-17.73,7.27-44.48,7.27-80.27v-168.36c0-36.35-.6-59.93-2.33-70.97-1.48-11.05-6.42-22.41-14.25-34.06-8.15-11.61-19.47-20.62-34.61-27.04-15.41-6.39-33.12-9.6-53.79-9.6-17.71,0-40.68,3.53-56.09,10.8-15.11,6.96-29.07,17.72-41.56,31.98V217.86h-150.01Z" fill="#fff" fill-rule="evenodd"/></svg>