<?xml version="1.0" encoding="UTF-8" standalone="no"?>
<svg
   xmlns:dc="http://purl.org/dc/elements/1.1/"
   xmlns:cc="http://creativecommons.org/ns#"
   xmlns:rdf="http://www.w3.org/1999/02/22-rdf-syntax-ns#"
   xmlns:svg="http://www.w3.org/2000/svg"
   xmlns="http://www.w3.org/2000/svg"
   xmlns:sodipodi="http://sodipodi.sourceforge.net/DTD/sodipodi-0.dtd"
   xmlns:inkscape="http://www.inkscape.org/namespaces/inkscape"
   inkscape:version="0.92.4 (5da689c313, 2019-01-14)"
   sodipodi:docname="IMDb_TV.svg"
   id="svg866"
   version="1.1"
   viewBox="0 0 1000 218.68809"
   height="218.6881"
   width="1000">
  <metadata
     id="metadata870">
    <rdf:RDF>
      <cc:Work
         rdf:about="">
        <dc:format>image/svg+xml</dc:format>
        <dc:type
           rdf:resource="http://purl.org/dc/dcmitype/StillImage" />
        <dc:title>Group 2</dc:title>
      </cc:Work>
    </rdf:RDF>
  </metadata>
  <sodipodi:namedview
     inkscape:current-layer="Group-2"
     inkscape:window-maximized="1"
     inkscape:window-y="-8"
     inkscape:window-x="1912"
     inkscape:cy="217.76136"
     inkscape:cx="1270.1356"
     inkscape:zoom="0.175"
     showgrid="false"
     id="namedview868"
     inkscape:window-height="1017"
     inkscape:window-width="1920"
     inkscape:pageshadow="2"
     inkscape:pageopacity="0"
     guidetolerance="10"
     gridtolerance="10"
     objecttolerance="10"
     borderopacity="1"
     inkscape:document-rotation="0"
     bordercolor="#666666"
     pagecolor="#ffffff"
     fit-margin-top="0"
     fit-margin-left="0"
     fit-margin-right="0"
     fit-margin-bottom="0">
    <inkscape:grid
       type="xygrid"
       id="grid26"
       originx="799.99999"
       originy="1680.0106" />
  </sodipodi:namedview>
  <!-- Generator: Sketch 57.1 (83088) - https://sketch.com -->
  <title
     id="title833">Group 2</title>
  <desc
     id="desc835">Created with Sketch.</desc>
  <defs
     id="defs847">
    <linearGradient
       gradientUnits="userSpaceOnUse"
       gradientTransform="scale(0.9202346,1.0866794)"
       id="linearGradient-1"
       y2="-16.128843"
       x2="148.10571"
       y1="51.686306"
       x1="31.117645">
      <stop
         id="stop837"
         offset="21.89%"
         stop-color="#D01F49" />
      <stop
         id="stop839"
         offset="83.44%"
         stop-color="#E8138B" />
    </linearGradient>
    <linearGradient
       gradientUnits="userSpaceOnUse"
       gradientTransform="scale(0.99744911,1.0025574)"
       id="linearGradient-2"
       y2="15.567108"
       x2="182.8707"
       y1="89.070389"
       x1="33.898258">
      <stop
         id="stop842"
         offset="21.89%"
         stop-color="#D01F49" />
      <stop
         id="stop844"
         offset="83.44%"
         stop-color="#E8138B" />
    </linearGradient>
  </defs>
  <g
     id="IMDb-TV-Logo-Treatments"
     style="fill:none;fill-rule:evenodd;stroke:none;stroke-width:1"
     transform="translate(799.99999,-1603.2885)">
    <g
       transform="translate(-121,-771)"
       id="Secondary-(16:9)">
      <g
         transform="translate(0,619)"
         id="IMDbTV_CMYK_Black_Linear_1920x1080">
        <g
           transform="translate(121.30517,152.38335)"
           id="Group-2">
          <g
             style="fill:#333335;fill-opacity:1"
             transform="matrix(1.5244889,0,0,1.5294402,-800.61456,1602.9132)"
             id="Group">
            <path
               inkscape:connector-curvature="0"
               style="fill:#333335;fill-opacity:1"
               id="Shape"
               d="M 270.04198,0.28058995 V 140.40638 h 32.86578 l 2.31531,-8.89635 c 2.9283,3.60228 6.20453,6.24313 9.81624,8.08347 3.62,1.76194 8.92989,2.6491 13.08833,2.6491 5.73235,0 10.77301,-1.49373 14.93146,-4.55134 4.22885,-2.98333 6.89208,-6.58561 7.98553,-10.67067 1.15973,-4.13457 1.70646,-10.38595 1.70646,-18.74176 V 68.959105 c 0,-8.487846 -0.14083,-13.996486 -0.54673,-16.571312 -0.34792,-2.578952 -1.50764,-5.232177 -3.34249,-7.95555 -1.90941,-2.71512 -4.56849,-4.815419 -8.11394,-6.3174 -3.61586,-1.493729 -7.77016,-2.240593 -12.62029,-2.240593 -4.1543,0 -9.53874,0.817012 -13.1546,2.517056 -3.5413,1.625772 -6.81752,4.138702 -9.74583,7.468645 V 0.28058995 Z M 317.56586,106.44675 c 0,6.7259 -0.34378,11.06679 -1.02305,12.83699 -0.68341,1.76606 -3.61585,2.64084 -5.86903,2.64084 -2.17449,0 -3.61586,-0.80876 -4.35726,-2.57069 -0.68341,-1.70005 -1.09345,-5.63656 -1.09345,-11.82192 V 70.510603 c 0,-6.387548 0.33963,-10.328186 0.95677,-11.958084 0.68341,-1.55975 2.11236,-2.372635 4.22471,-2.372635 2.24904,0 5.24362,0.95318 6.00158,2.719246 0.74968,1.827961 1.15973,5.706705 1.15973,11.611473 z" />
            <polygon
               style="fill:#333335;fill-opacity:1"
               points="36.680447,140.40638 0.20295188,140.40638 0.20295188,0.28058995 36.680447,0.28058995 "
               id="Rectangle-path" />
            <path
               inkscape:connector-curvature="0"
               style="fill:#333335;fill-opacity:1"
               id="path851"
               d="M 114.53528,0.28058995 106.08171,65.757079 100.89608,30.167545 C 99.330451,18.758263 97.901504,8.7725621 96.468416,0.27646362 H 49.151633 V 140.40226 H 81.12691 l 0.140824,-92.508032 13.432101,92.508032 h 22.772025 l 12.81497,-94.542309 0.0663,94.542309 h 31.90072 V 0.28058995 Z" />
            <path
               inkscape:connector-curvature="0"
               style="fill:#333335;fill-opacity:1"
               id="path853"
               d="m 218.98094,140.40638 c 8.72693,0 15.2711,-0.47865 19.64077,-1.42358 4.28684,-0.94905 7.97311,-2.57895 10.90142,-5.02586 2.93245,-2.38501 5.04895,-5.7067 6.20453,-9.91968 1.22599,-4.20885 1.9094,-12.62655 1.9094,-25.195326 V 49.66442 c 0,-13.245496 -0.54672,-22.141848 -1.2964,-26.693181 -0.81595,-4.481187 -2.86204,-8.628141 -6.13826,-12.292316 C 246.99659,7.006496 242.22929,4.3573968 236.02476,2.735752 229.82023,1.1017282 219.59394,0.28058995 201.93298,0.28058995 H 174.72915 V 140.40638 Z m 0.34378,-114.852063 c 1.4248,0.812885 2.38572,2.10855 2.79991,3.936511 0.4059,1.766067 0.61299,5.838747 0.61299,12.156147 v 54.26527 c 0,9.379135 -0.61299,15.085835 -1.84727,17.194385 -1.22186,2.10443 -4.42767,3.1195 -9.67957,3.1195 V 24.266904 c 3.95135,0 6.67671,0.404379 8.11394,1.287413 z" />
          </g>
          <path
             style="opacity:1;fill:#06acd4;fill-opacity:1;stroke:none;stroke-width:0.05467148;stroke-linecap:round;stroke-linejoin:miter;stroke-miterlimit:4;stroke-dasharray:none;stroke-opacity:1"
             d="m -243.96812,1602.9052 v 214.7496 h 57.29571 v -79.383 h 29.52261 c 62.422456,0 78.289564,-24.6063 78.289564,-64.5123 0,-45.731 -16.678696,-70.8543 -72.385044,-70.8543 z m 57.29571,34.5524 h 24.61798 c 19.3721,0 29.16125,10.1116 29.16125,31.5023 0,19.4066 -10.35246,29.7298 -28.35699,29.7298 h -25.42224 z"
             id="path96"
             inkscape:connector-curvature="0" />
          <path
             style="opacity:1;fill:#06acd4;fill-opacity:1;stroke:none;stroke-width:0.05467148;stroke-linecap:round;stroke-linejoin:miter;stroke-miterlimit:4;stroke-dasharray:none;stroke-opacity:1"
             d="m -61.584053,1817.6546 v -191.1315 h 50.735139 v 24.7115 h 0.743773 c 6.7631253,-15.2316 18.8648337,-28.4292 49.553994,-28.4292 v 47.757 c 0,0 -2.975134,-0.2761 -6.836253,-0.2761 -23.0324195,0 -40.8372824,8.2276 -40.8372824,37.6661 v 109.7022 z"
             id="path100"
             inkscape:connector-curvature="0"
             sodipodi:nodetypes="ccccccccccc" />
          <path
             style="opacity:1;fill:#06acd4;fill-opacity:1;stroke:none;stroke-width:0.05467148;stroke-linecap:round;stroke-linejoin:miter;stroke-miterlimit:4;stroke-dasharray:none;stroke-opacity:1"
             d="m 121.59618,1622.95 c -69.137146,0 -77.94914,42.5206 -77.94914,96.7959 0,60.5485 9.326409,101.8474 78.26693,101.8474 63.67158,0 77.78086,-34.6845 77.78086,-101.1837 0,-61.2568 -12.80172,-97.4596 -78.09865,-97.4596 z m 0.12345,34.197 c 23.6508,0 24.46634,23.1271 24.46634,58.9222 0,60.8214 -5.59724,71.401 -24.34932,71.401 -20.10999,0 -24.670512,-13.1132 -24.670512,-71.2391 0,-34.4368 0.01938,-59.0841 24.553492,-59.0841 z"
             id="path102"
             inkscape:connector-curvature="0" />
        </g>
      </g>
    </g>
  </g>
</svg>
