<?xml version="1.0" encoding="UTF-8"?><svg id="a" xmlns="http://www.w3.org/2000/svg" viewBox="0 0 1918.53 1918.65"><path d="M1788.93,0H129.59C59.18,4.66,4.63,59.45,.08,127.53l-.08,1661.47c4.68,70.04,56.96,123.35,124.38,129.44,1.19,.16,2.41,.21,3.6,.21H1790.58c1.16,0,2.33-.05,3.49-.16,69.77-6.14,124.46-66.12,124.46-136.58V136.69c0-71.26-55.64-131.24-126.63-136.53-1.01-.11-1.96-.16-2.97-.16Zm0,39.65c50.4,3.76,89.95,45.53,89.95,97.04V1781.91c0,50.98-38.97,92.75-88.3,97.09H127.98c-47.7-4.34-85.1-42.35-88.36-90V130.18c3.26-48.76,41.74-87.3,89.97-90.53H1788.93Z" fill="#fff" fill-rule="evenodd"/><rect x="230.97" y="660.36" width="152.33" height="588.67" fill="#fff"/><path d="M707.46,660.36l-35.23,275.38-21.68-149.6c-6.51-48.28-12.46-90-18.44-125.78h-197.3v588.67h133.35l.53-388.67,55.85,388.67h94.86l53.65-397.35v397.35h132.82V660.36h-198.41Z" fill="#fff" fill-rule="evenodd"/><path d="M1143.88,766.6c5.93,3.23,9.75,8.63,11.33,16.26,2.23,7.62,2.76,24.93,2.76,51.5v228.22c0,39.02-2.76,62.89-7.63,71.58-4.87,9.21-18.42,13.55-40.12,13.55v-386.56c16.3,0,27.63,1.64,33.66,5.45Zm-1.69,482.43c36.32,0,64-2.12,81.9-5.93,18.42-3.81,33.61-10.85,45.52-21.17,12.44-9.74,21.12-23.82,25.99-41.72,4.88-17.89,8.16-53.15,8.16-105.72v-206.51c0-55.85-2.17-93.28-5.93-112.23-3.28-18.95-11.44-36.32-24.99-51.46-13.55-15.77-33.56-26.57-59.61-33.66-25.51-6.46-68.29-10.27-141.45-10.27h-113.87v588.67h184.28Z" fill="#fff" fill-rule="evenodd"/><path d="M1553.1,1106.52c0,28.16-1.59,46.06-4.35,53.63-2.64,7.57-15.14,11.38-24.35,11.38-8.68,0-15.19-3.81-17.89-10.8-3.28-7.09-4.87-23.87-4.87-49.87v-155.64c0-26.57,1.59-43.35,4.34-49.86,2.7-6.46,8.68-9.75,17.36-9.75,9.22,0,21.66,3.29,24.89,11.39,3.28,7.57,4.87,23.87,4.87,48.22v151.3Zm-197.83-446.16v588.67h137.16l9.21-37.37c12.44,15.14,25.99,26.57,41.19,34.14,14.61,7.04,36.84,10.85,54.2,10.85,24.36,0,45-5.98,62.37-18.95,17.31-12.49,28.69-27.68,33.56-44.99,4.34-17.37,7.09-43.41,7.09-78.67v-165.28c0-35.25-1.11-58.55-2.75-69.4-1.59-10.85-5.93-22.23-13.55-33.61-8.16-11.39-19.48-20.07-34.15-26.58-14.66-5.93-31.97-9.21-52.57-9.21-17.36,0-39.59,3.81-54.73,10.27-14.67,7.09-28.22,17.89-40.66,32.03v-191.9h-146.37Z" fill="#fff" fill-rule="evenodd"/></svg>