<?xml version="1.0" encoding="UTF-8" standalone="no"?>
<!-- Created with Inkscape (http://www.inkscape.org/) -->

<svg
   xmlns:dc="http://purl.org/dc/elements/1.1/"
   xmlns:cc="http://creativecommons.org/ns#"
   xmlns:rdf="http://www.w3.org/1999/02/22-rdf-syntax-ns#"
   xmlns:svg="http://www.w3.org/2000/svg"
   xmlns="http://www.w3.org/2000/svg"
   xmlns:xlink="http://www.w3.org/1999/xlink"
   version="1.1"
   width="271.33191"
   height="63.478062"
   id="svg3120">
  <title
     id="title3122">No Spoon Productions Logo</title>
  <defs
     id="defs3124">
    <style
       type="text/css"
       id="style3126" />
    <path
       d="m 108.7,24.46 c 6.9,18.39 2.2,38.37 -7.6,54.73 -3.15,5.18 -7.01,9.35 -8.42,15.31 -1.12,4.7 -1.4,9.6 -1.48,14.4 -0.46,27.7 4.96,55.3 7.06,82.8 0.88,11.6 1.74,23.7 -0.38,35.1 -1.2,6.5 -4.13,14.5 -11.89,14.7 -7.83,0.1 -11.09,-9.3 -12.17,-16.3 -2.04,-13.2 -0.73,-27 0.46,-40.2 2.43,-26.8 8.06,-54.2 6.3,-81.2 C 80.3,99.48 79.79,95.04 78.24,90.98 77.31,88.54 75.81,86.63 74.33,84.49 70.94,79.59 67.95,74.4 65.58,68.93 58.56,52.78 57.54,34.03 66.09,18.24 c 3.57,-6.61 12,-18.45 21,-17.14 10.5,1.54 18.31,14.5 21.61,23.36 z"
       id="spoon"
       style="fill:none;stroke-width:4;stroke-linecap:round;stroke-linejoin:round;stroke-miterlimit:4;stroke-dasharray:4, 8, 4, 9;stroke-dashoffset:0" />
  </defs>
  <metadata
     id="metadata3129">
    <rdf:RDF>
      <cc:Work
         rdf:about="">
        <dc:format>image/svg+xml</dc:format>
        <dc:type
           rdf:resource="http://purl.org/dc/dcmitype/StillImage" />
        <dc:title>No Spoon Productions Logo</dc:title>
        <dc:date>2011-10-22</dc:date>
        <dc:creator>
          <cc:Agent>
            <dc:title>Hugh Guiney</dc:title>
          </cc:Agent>
        </dc:creator>
        <dc:rights>
          <cc:Agent>
            <dc:title>Hugh Guiney</dc:title>
          </cc:Agent>
        </dc:rights>
        <dc:publisher>
          <cc:Agent>
            <dc:title>Hugh Guiney</dc:title>
          </cc:Agent>
        </dc:publisher>
        <dc:language>en</dc:language>
        <dc:subject>
          <rdf:Bag>
            <rdf:li>spoon</rdf:li>
            <rdf:li>logo</rdf:li>
            <rdf:li>missing</rdf:li>
            <rdf:li>divider</rdf:li>
            <rdf:li>film</rdf:li>
            <rdf:li>tv</rdf:li>
            <rdf:li>video</rdf:li>
          </rdf:Bag>
        </dc:subject>
        <dc:description>No Spoon Productions combined seal and wordmark</dc:description>
      </cc:Work>
    </rdf:RDF>
  </metadata>
  <g
     transform="matrix(0.375,0,0,0.375,-17.549968,-146.88724)"
     id="layer-1">
    <g
       transform="matrix(1.25,0,0,-1.25,-177.3,986.5)"
       id="foreground">
      <g
         id="missing-spoon">
        <title
           id="title3134">Seal</title>
        <desc
           id="desc3136">Horizontal “missing spoon” icon (transparent with dotted outline), facing left</desc>
        <use
           transform="matrix(0,-2.421,-2.367,0,755.7,616.3)"
           id="use-spoon"
           style="stroke:#000000"
           x="0"
           y="0"
           width="174"
           height="244"
           xlink:href="#spoon" />
      </g>
    </g>
  </g>
</svg>
